<?xml version="1.0" encoding="UTF-8" standalone="no"?>
<svg
   xmlns:dc="http://purl.org/dc/elements/1.1/"
   xmlns:cc="http://creativecommons.org/ns#"
   xmlns:rdf="http://www.w3.org/1999/02/22-rdf-syntax-ns#"
   xmlns:svg="http://www.w3.org/2000/svg"
   xmlns="http://www.w3.org/2000/svg"
   xmlns:sodipodi="http://sodipodi.sourceforge.net/DTD/sodipodi-0.dtd"
   xmlns:inkscape="http://www.inkscape.org/namespaces/inkscape"
   version="1.1"
   id="Layer_1"
   x="0px"
   y="0px"
   width="314.63037"
   height="446.30466"
   viewBox="0 0 314.63037 446.30466"
   enable-background="new 0 0 502 542"
   xml:space="preserve"
   sodipodi:docname="PS3.17_A-1.svg"
   inkscape:version="0.92.2 5c3e80d, 2017-08-06"><metadata
     id="metadata191"><rdf:RDF><cc:Work
         rdf:about=""><dc:format>image/svg+xml</dc:format><dc:type
           rdf:resource="http://purl.org/dc/dcmitype/StillImage" /><dc:title></dc:title></cc:Work></rdf:RDF></metadata><sodipodi:namedview
     pagecolor="#ffffff"
     bordercolor="#666666"
     borderopacity="1"
     objecttolerance="10"
     gridtolerance="10"
     guidetolerance="10"
     inkscape:pageopacity="0"
     inkscape:pageshadow="2"
     inkscape:window-width="738"
     inkscape:window-height="480"
     id="namedview189"
     showgrid="false"
     fit-margin-top="0"
     fit-margin-left="0"
     fit-margin-right="0"
     fit-margin-bottom="0"
     inkscape:zoom="0.43542435"
     inkscape:cx="157.61672"
     inkscape:cy="193.89842"
     inkscape:window-x="0"
     inkscape:window-y="0"
     inkscape:window-maximized="0"
     inkscape:current-layer="Layer_1" /><defs
     id="defs4"><style
       type="text/css"
       id="style2">
	text {
	  font-family: Helvetica, Verdana, ArialUnicodeMS, san-serif
	}
	</style></defs><g
     id="g8"
     transform="translate(-93.383281,-18.593753)"><desc
       id="desc6">
	PS 3.17 Part 17: Explanatory Information
   </desc></g><path
     d="m 218.51572,249.21225 0.24,0.961 c 0,0.879 0,1.76 0,2.639 l -0.24,0.48 -0.479,0.24 h -0.48 l -0.479,0.24 -0.48,-0.24 h -0.48 l -0.479,-0.24 h -0.24 l -0.479,-0.24 -0.48,-0.479 -0.24,-0.48 -0.479,-0.24 c -0.146,0.727 -0.301,1.441 -0.48,2.16 0,1.119 0,2.24 0,3.359 l 0.24,1.201 c 0,1.92 0,3.84 0,5.76 l -0.24,1.199 v 0.959 c -0.428,1.072 -0.924,2.09 -1.439,3.121 l -0.96,0.24 -0.721,0.48 -0.72,0.719 c -0.32,0.641 -0.64,1.281 -0.96,1.92 l -0.72,0.48 h -0.96 l -1.2,-0.48 -0.479,-0.48 -0.721,-0.238 h -0.72 c -0.48,-0.16 -0.961,-0.32 -1.44,-0.48 -0.319,-0.32 -0.64,-0.641 -0.96,-0.961 l -0.239,-0.959 c 0,-0.4 0,-0.801 0,-1.201 l -0.24,-0.238 v -0.24 c -0.16,-0.16 -0.32,-0.32 -0.48,-0.48 v 0.24 h -0.239 l -0.24,0.24 c -0.48,0 -0.961,0 -1.44,0 l -0.96,-1.92 -0.24,-1.201 c 0,-1.92 0,-3.84 0,-5.76 l 0.24,-1.199 c 0,-2 0,-4 0,-6 l -0.24,-1.201 v -1.199 c -0.16,-0.801 -0.319,-1.6 -0.479,-2.4 0,-0.801 0,-1.6 0,-2.4 l 0.24,-1.199 v -1.439 l 0.239,-1.201 0.48,-0.959 0.24,-1.201 0.479,-1.199 v -1.199 l -0.24,-1.201 v -1.199 l -0.239,-0.961 v -1.199 l -0.24,-1.201 v -0.959 l -0.24,-1.201 v -1.199 l -0.24,-1.199 v -0.961 l -0.239,-1.199 v -0.961 l -0.24,-1.199 c 0,-0.721 0,-1.44 0,-2.16 -0.567,-1.699 -1.249,-3.411 -1.544,-5.182 -0.291,-1.752 -1.015,-3.455 -1.576,-5.139 l -0.24,-1.68 -0.479,-1.44 c -0.296,-2.072 -0.721,-4.109 -0.721,-6.206 0,-1.932 0,-3.863 0,-5.794 l 0.24,-0.72 c 0,-0.88 0,-1.76 0,-2.641 l 0.24,-0.959 c 0,-0.561 0,-1.121 0,-1.681 0.16,-0.64 0.32,-1.28 0.48,-1.92 v -0.72 c 0.362,-1.451 0.837,-2.869 1.199,-4.32 0,-0.48 0,-0.96 0,-1.439 -0.159,-0.48 -0.319,-0.961 -0.479,-1.44 v -0.479 c -0.16,-0.48 -0.32,-0.961 -0.48,-1.44 l -0.479,-0.479 c -0.514,-1.541 -1.168,-3.023 -1.681,-4.561 v -0.721 l -0.72,0.961 -0.479,1.199 -0.24,1.201 -0.48,1.199 c -0.214,1.286 -0.464,2.562 -0.72,3.84 l -0.479,1.2 c -0.374,2.242 -0.754,4.491 -1.2,6.72 0,1.633 0,3.266 0,4.898 0,1.568 0.462,3.158 0.72,4.702 l 0.48,1.2 0.239,1.439 c 0.363,0.907 0.763,1.766 1.2,2.641 0.237,1.66 0.72,3.471 0.72,5.146 0,1.046 -0.06,1.991 -0.207,3.025 -0.11,0.776 0.025,1.563 -0.104,2.34 -0.301,1.805 -0.484,3.623 -0.784,5.426 -0.14,0.844 -0.016,1.689 -0.136,2.529 -0.143,0.995 -0.208,1.9 -0.208,2.906 0,2.119 0.354,4.148 0.589,6.252 0.236,2.119 0.455,4.242 0.719,6.359 0.135,1.082 0.072,2.129 0.132,3.215 0.059,1.061 0.24,2.082 0.24,3.145 0,1.123 0.114,2.197 0.237,3.314 0.113,1.01 -0.016,2.029 0.111,3.045 0.529,4.23 -0.108,8.553 -0.108,12.793 0,1.062 -0.182,2.084 -0.24,3.143 -0.058,1.059 0.008,2.09 -0.109,3.146 -0.238,2.139 -0.61,4.275 -0.61,6.43 0,4.281 -1.068,8.557 -1.596,12.789 -0.123,0.99 -0.453,1.943 -0.576,2.93 -0.15,1.205 -0.345,2.35 -0.607,3.535 -0.214,0.961 -0.179,1.963 -0.417,2.914 -0.253,1.012 -0.44,2.035 -0.644,3.057 v 1.199 l 0.239,0.961 v 1.199 c 0.468,2.342 0.792,4.74 1.681,6.961 l 0.24,1.199 c 0.444,1.113 0.755,2.248 1.199,3.361 0,0.879 0,1.76 0,2.639 0.416,2.078 0.784,4.162 1.2,6.24 v 1.439 c 0.256,1.277 0.465,2.562 0.72,3.842 0,0.939 0.11,1.975 -0.043,2.902 -0.17,1.016 -0.34,2.033 -0.509,3.049 -0.317,1.9 -0.168,3.883 -0.168,5.809 -0.16,0.799 -0.319,1.6 -0.479,2.398 v 1.201 c -0.32,1.6 -0.641,3.199 -0.96,4.799 v 1.201 c -0.345,1.723 -0.48,3.312 -0.48,5.066 0,1.584 0,3.168 0,4.752 0,4.166 0,8.334 0,12.502 l 0.24,1.199 0.479,0.961 c 0.32,1.6 0.641,3.199 0.96,4.799 0,2.08 0,4.16 0,6.24 l -0.239,1.199 -0.48,0.961 -0.24,1.199 -0.72,0.961 -0.479,1.199 c -0.8,0.641 -1.6,1.279 -2.4,1.92 -0.479,0.801 -0.96,1.6 -1.44,2.4 -0.41,1.23 -0.643,2.42 -0.856,3.697 -0.198,1.189 -0.623,2.305 -0.823,3.504 -0.452,1.131 -0.819,2.287 -1.271,3.416 -0.426,1.066 -1.139,1.934 -1.85,2.822 l -1.2,0.961 c -0.749,0.375 -1.463,0.736 -2.159,1.199 -0.421,0.631 -0.779,1.287 -1.2,1.92 l -0.48,0.48 -0.479,0.721 c -0.396,0.197 -0.779,0.34 -1.2,0.48 l -0.96,-0.24 h -0.96 c -0.558,0.186 -1.11,0.336 -1.681,0.479 l -0.72,0.48 -0.72,0.24 h -0.96 l -0.72,-0.721 -0.961,0.48 h -0.719 c -0.48,-0.16 -0.961,-0.32 -1.44,-0.48 l -0.72,-0.479 c -0.48,0 -0.961,0 -1.44,0 l -0.96,0.479 h -0.721 l -0.479,-0.238 h -0.72 l -0.721,0.238 h -0.72 c -0.72,-0.238 -1.44,-0.479 -2.16,-0.719 -0.28,-0.561 -0.521,-1.086 -0.72,-1.68 0,-0.561 0,-1.121 0,-1.682 0.143,-0.57 0.295,-1.123 0.479,-1.68 1.442,-2.158 2.879,-4.32 4.321,-6.479 l 0.239,-0.721 0.96,-0.961 c 0.943,-1.57 1.809,-3.027 2.391,-4.771 0.546,-1.635 1.406,-3.061 2.17,-4.588 l 0.24,-0.959 0.719,-0.961 0.48,-0.959 c 0.771,-1.029 1.642,-1.949 2.414,-2.979 0.808,-1.08 1.576,-2.184 2.386,-3.262 0.667,-1.334 1.079,-2.639 1.44,-4.08 0,-1.865 0.479,-3.652 0.479,-5.521 0,-1.938 0.345,-3.695 0.021,-5.633 -0.138,-0.83 -0.021,-1.801 -0.021,-2.641 0,-0.912 -0.239,-1.814 -0.239,-2.742 0,-0.908 -0.24,-1.791 -0.24,-2.711 0,-0.891 -0.222,-1.779 -0.396,-2.65 -0.421,-2.105 -0.474,-4.205 -0.824,-6.309 -0.373,-2.23 -0.805,-4.457 -1.125,-6.695 -0.154,-1.076 -0.108,-2.139 -0.289,-3.225 -0.082,-0.49 0.07,-1.018 -0.012,-1.508 -0.082,-0.498 -0.233,-1.025 -0.233,-1.531 0,-1.145 -0.24,-2.242 -0.24,-3.377 0,-1.072 0,-2.145 0,-3.217 l -0.24,-0.961 v -0.959 l -0.239,-0.721 c 0,-0.641 0,-1.281 0,-1.92 l -0.24,-0.961 c 0,-0.639 0,-1.279 0,-1.92 l -0.24,-0.719 c 0,-0.641 0,-1.281 0,-1.92 l -0.24,-0.961 v -0.721 c -0.16,-0.639 -0.32,-1.279 -0.48,-1.92 v -1.439 l 0.24,-1.199 -0.24,-1.201 c 0,-1.916 -0.464,-3.766 -0.839,-5.639 -0.376,-1.879 -0.705,-3.764 -1.081,-5.641 0,-1.76 0,-3.52 0,-5.279 -0.16,-0.801 -0.319,-1.6 -0.479,-2.4 l -0.479,-0.961 -0.24,-1.199 -0.48,-0.961 -0.24,-1.199 c -0.355,-0.713 -0.663,-1.42 -0.959,-2.16 l -0.24,-1.199 -0.48,-1.201 c -0.421,-2.104 -1.019,-4.137 -1.439,-6.24 l -0.48,-1.199 c -0.16,-0.801 -0.32,-1.6 -0.48,-2.4 l -0.479,-1.199 c -0.419,-2.104 -1.02,-4.137 -1.44,-6.24 l -0.239,0.48 -0.24,0.24 -0.24,0.719 -0.239,0.24 v 0.721 l -0.24,0.479 c 0,1.518 -0.248,2.91 -0.663,4.363 -0.351,1.227 -0.601,2.584 -1.103,3.756 -1.143,2.668 -1.651,5.531 -2.794,8.201 -0.313,2.193 -0.841,4.322 -1.116,6.525 -0.256,2.043 -0.1,4.162 0.155,6.195 -0.323,2.266 -0.272,4.369 0.104,6.621 0.197,1.191 0.155,2.375 0.355,3.574 0.167,1.004 0.301,2.004 0.501,3.004 0,1.232 0.108,2.34 0.312,3.553 0.214,1.285 0.168,2.555 0.168,3.855 0,1.092 -0.316,2.342 -0.531,3.412 -0.238,1.191 -0.469,2.381 -0.669,3.58 l -0.48,1.201 c -0.256,1.277 -0.505,2.553 -0.72,3.84 l -0.479,1.199 -0.24,1.199 -0.48,1.201 c -0.147,0.883 -0.304,1.762 -0.479,2.639 l -0.479,1.201 c -0.496,2.477 -0.946,4.963 -1.44,7.439 0,1.689 -0.24,3.34 -0.24,5.041 l -0.239,1.199 0.239,1.199 c 0,1.785 0.105,3.402 0.455,5.156 0.312,1.564 0.722,3.174 1.226,4.686 v 0.959 c 0.185,0.559 0.337,1.109 0.479,1.68 v 0.961 c 0.186,0.557 0.337,1.109 0.479,1.68 v 0.959 l 0.24,0.721 v 0.961 c -0.204,0.814 -0.454,1.602 -0.72,2.398 -0.32,0.48 -0.641,0.961 -0.96,1.441 -0.854,0.854 -1.673,1.674 -2.641,2.398 -0.8,0.32 -1.6,0.641 -2.399,0.961 h -1.44 l -1.199,0.24 h -1.44 l -1.2,-0.24 c -1.84,0 -3.68,0 -5.52,0 -0.8,0.16 -1.601,0.32 -2.4,0.48 l -1.199,0.479 -1.201,0.961 c -1.161,0.387 -2.107,1.004 -3.12,1.68 l -0.959,0.24 c -0.781,0.521 -1.618,0.918 -2.4,1.439 -1.524,0.381 -3.033,0.818 -4.561,1.201 h -0.981 c -0.719,-0.18 -1.435,-0.336 -2.16,-0.48 -0.4,0 -0.801,0 -1.2,0 -1.44,0.48 -2.88,0.959 -4.32,1.439 h -0.72 l -0.48,0.24 c -0.72,0 -1.439,0 -2.16,0 -0.479,-0.16 -0.959,-0.32 -1.439,-0.48 l -0.721,-0.479 v -0.48 c -0.159,-0.16 -0.319,-0.32 -0.479,-0.48 v -0.48 l -0.239,-0.24 v -0.238 l -0.240001,-0.24 h -0.48 v -0.24 l -0.48,-0.24 -0.239,-0.48 -0.24,-0.24 -0.239,-0.479 c 0,-0.961 0,-1.922 0,-2.881 l 0.479,-0.48 0.479,-0.24 0.48,-0.479 c 0.16,-0.32 0.320001,-0.641 0.480001,-0.961 v -0.48 l 0.479,-0.479 c 0.425,-0.213 0.804,-0.457 1.2,-0.721 2.758,-0.92 5.4,-2.199 8.16,-3.121 l 0.72,0.24 1.2,-0.959 c 1.019,-0.51 1.932,-1.049 2.88,-1.68 1.614,-0.693 3.185,-1.469 4.8,-2.16 1.201,-0.801 2.486,-1.418 3.683,-2.215 1.155,-0.771 2.192,-1.719 3.277,-2.586 0.61,-0.916 1.231,-1.779 1.92,-2.641 l 0.721,-1.68 c 0.153,-1.08 0.479,-2.297 0.479,-3.389 0,-1.221 0.088,-2.357 0.239,-3.57 -0.293,-2.057 -0.239,-4.092 -0.239,-6.166 0,-0.93 0,-1.859 0,-2.789 0,-0.982 -0.24,-1.943 -0.24,-2.912 0,-1.072 0.076,-2.184 0,-3.254 -0.076,-1.07 -0.239,-2.053 -0.239,-3.133 0,-1.916 -0.24,-3.781 -0.24,-5.699 0,-2.092 0.241,-4.357 -0.054,-6.426 -0.312,-2.186 0.054,-4.287 0.054,-6.48 0,-1.045 -0.115,-2.176 0.032,-3.207 0.154,-1.082 0.072,-2.176 0.223,-3.24 0.147,-1.033 0.465,-2.174 0.465,-3.213 0,-1.176 0.074,-2.238 0.239,-3.4 l -0.479,-1.201 -0.239,-1.199 c 0,-1.279 0,-2.561 0,-3.84 l 0.239,-1.201 c 0,-2.498 0.711,-4.994 1.2,-7.439 0,-1.316 -0.022,-2.537 -0.24,-3.84 l -0.48,-1.199 c 0,-3.133 -0.503,-6.227 -0.85,-9.336 -0.179,-1.604 -0.35,-3.146 -0.35,-4.762 0,-1.469 -0.383,-2.922 -0.48,-4.383 -0.07,-1.055 0.008,-2.092 -0.109,-3.145 -0.123,-1.105 -0.245,-2.209 -0.368,-3.314 -0.111,-1.01 0.018,-2.029 -0.109,-3.045 -0.136,-1.08 -0.133,-2.127 -0.133,-3.217 0,-2.166 -0.239,-4.291 -0.239,-6.457 0,-2.1 0.239,-4.162 0.239,-6.262 0,-2.092 0.269,-4.104 0.5,-6.178 0.232,-2.1 0.309,-4.305 0.768,-6.365 0.487,-2.191 0.803,-4.381 1.348,-6.562 0.513,-2.047 1.192,-4.043 1.704,-6.096 v -0.959 l 0.24,-1.201 v -0.959 l 0.24,-0.961 c 0,-1.439 0,-2.879 0,-4.319 l -0.24,-0.96 v -1.2 c -0.24,-0.96 -0.479,-1.92 -0.72,-2.88 0.668,-4.008 1.681,-8.145 1.681,-12.212 0,-0.489 0.202,-0.98 0.24,-1.468 0.043,-0.544 0,-1.106 0,-1.652 0,-1.014 0,-2.027 0,-3.041 0,-1.941 -0.161,-3.952 -0.48,-5.867 -0.774,1.935 -1.626,3.826 -2.4,5.76 -0.766,1.912 -1.407,3.953 -2.4,5.76 -0.496,0.904 -0.89,1.885 -1.416,2.762 -0.575,0.959 -1.248,1.831 -1.919,2.727 -0.59,0.785 -1.062,1.707 -1.609,2.529 -0.546,0.818 -0.982,1.607 -1.295,2.543 -0.512,0.77 -0.907,1.522 -1.2,2.4 l -0.479,0.72 -0.24,0.96 -0.48,0.721 c -0.377,1.506 -0.986,2.933 -1.68,4.319 0,0.144 0,0.288 0,0.433 0,4.469 -0.662,8.817 -1.396,13.225 -0.173,1.04 -0.563,2.043 -0.953,3.018 -0.388,0.969 -0.607,1.996 -0.997,2.971 -0.761,1.902 -1.89,3.646 -2.653,5.555 l -0.24,1.439 -0.48,1.201 -0.239,1.439 c -0.69,1.148 -1.355,2.287 -2.16,3.359 l -1.2,0.961 -1.439,-0.24 -1.2,0.48 c -0.69,1.148 -1.355,2.287 -2.16,3.359 l -0.96,0.721 -1.2,0.24 -1.440001,-0.961 -0.239,0.48 c -0.399,0.4 -0.8,0.799 -1.2,1.199 -0.641,0 -1.279,0 -1.92,0 l -0.48,-0.24 -0.24,-0.24 c -0.16,-0.318 -0.319,-0.639 -0.479,-0.959 l 0.24,-2.641 h -0.479 c -0.32,-0.16 -0.641,-0.32 -0.961,-0.48 l -0.24,-0.238 -0.479,-0.24 -0.239,-0.24 c -0.16,-0.32 -0.32,-0.641 -0.48,-0.961 l 0.24,-0.959 v -0.961 c 0.209,-1.049 0.46,-2.082 0.72,-3.119 l 0.479,-0.961 c 0.16,-0.639 0.32,-1.279 0.48,-1.92 l 0.48,-0.959 c 0.159,-0.641 0.319,-1.281 0.479,-1.922 l 0.479,-0.959 c 0.146,-0.727 0.301,-1.441 0.48,-2.16 l 0.48,-0.961 0.239,-0.959 c -0.319,0 -0.64,0 -0.96,0 l -0.24,0.24 -0.479,0.24 -0.24,0.24 -0.479,0.238 h -0.48 c -0.48,-0.238 -0.96,-0.479 -1.439,-0.719 -0.16,-0.32 -0.32,-0.641 -0.48,-0.96 0,-0.319 0,-0.64 0,-0.96 l 0.24,-0.48 c 0.48,-0.479 0.96,-0.959 1.439,-1.439 0.16,-0.32 0.32,-0.641 0.48,-0.961 l 0.48,-0.479 c 0.277,-0.558 0.521,-1.087 0.719,-1.68 0.769,-0.769 1.633,-1.392 2.4,-2.16 0.721,-0.72 1.44,-1.44 2.16,-2.16 l 0.48,-0.96 0.720001,-0.72 0.479,-0.72 c 0.887,-0.887 1.633,-1.871 2.521,-2.76 0.888,-0.89 1.874,-1.635 2.76,-2.521 l 1.2,-2.16 c 0.283,-0.849 0.626,-1.692 0.803,-2.571 0.43,-2.15 0.768,-4.354 0.877,-6.549 0.051,-1.016 -0.06,-2.037 0.041,-3.051 0.121,-1.211 0.199,-2.366 0.199,-3.582 0,-2.102 -0.135,-4.254 0.074,-6.344 0.217,-2.172 0.668,-4.289 0.886,-6.463 0.491,-1.636 0.934,-3.365 1.849,-4.83 0.92,-1.473 1.695,-2.978 2.472,-4.53 l 0.72,-0.96 c 0.32,-0.641 0.641,-1.279 0.96,-1.92 l 0.24,-1.2 c 0.511,-1.021 0.923,-2.013 1.2,-3.12 v -1.199 l 0.24,-1.201 c 0,-0.72 0,-1.439 0,-2.16 l -0.24,-1.199 -0.48,-1.2 c 0,-1.392 0,-2.784 0,-4.177 0,-2.241 0.357,-4.445 0.636,-6.668 0.261,-2.087 0.472,-4.193 1.052,-6.22 0.328,-1.147 0.539,-2.19 0.688,-3.376 0.122,-0.977 0.529,-1.975 0.77,-2.936 0.25,-1 0.771,-1.889 1.02,-2.881 0.273,-1.095 0.566,-2.178 0.876,-3.264 0,-2.23 0,-4.461 0,-6.691 0,-2.195 0.479,-4.317 0.479,-6.509 0.3,-1.047 0.541,-2.046 0.721,-3.12 0.48,-0.96 0.86,-1.861 1.2,-2.88 0.61,-0.917 1.231,-1.780003 1.92,-2.640003 1.017,-0.679 1.94,-1.378 2.88,-2.16 l 0.96,-0.48 0.96,-0.72 c 0.756,-0.188 1.436,-0.431 2.16,-0.72 0.8,-0.16 1.6,-0.32 2.399,-0.48 h 0.961 c 0.8,-0.159 1.6,-0.319 2.399,-0.479 h 1.2 l 1.199,-0.24 h 0.961 l 1.199,-0.48 c 0.8,-0.159 1.601,-0.319 2.4,-0.479 l 0.96,-0.48 c -0.24,-0.964 -0.644,-1.855 -0.884,-2.815 -0.224,-0.892 -0.376,-1.804 -0.557,-2.704 l -0.479,-1.2 c -0.16,-0.8 -0.319,-1.6 -0.479,-2.399 l -0.48,-0.721 c -0.505,-2.016 -1.175,-3.984 -1.68,-6 0,-1.76 0,-3.52 0,-5.279 0.16,-0.64 0.319,-1.28 0.479,-1.92 l -0.479,-0.721 -0.24,-0.96 v -0.72 l -0.24,-0.96 v -0.96 l 0.24,-0.96 c 0,-0.561 0,-1.12 0,-1.681 0.16,-0.64 0.32,-1.279 0.48,-1.92 v -0.72 l 0.239,-0.96 v -0.96 l 0.24,-0.96 c 0,-1.564 0.223,-3.018 0.479,-4.56 0.563,-1.408 1.063,-2.776 1.981,-4.001 0.881,-1.176 2.002,-2.134 3.26,-2.889 2.524,-1.515 5.194,-2.269 7.959,-3.19 1.354,-0.194 2.703,-0.421 4.057,-0.614 1.343,-0.191 2.721,-0.106 4.075,-0.106 1.272,0 2.706,0.406 3.967,0.616 1.315,0.22 2.521,0.781 3.741,1.304 l 1.2,0.24 c 1.401,1.051 2.833,1.872 4.08,3.12 0.616,1.027 1.329,1.974 1.944,2.999 0.559,0.933 0.927,2.022 1.416,3.001 0.434,2.604 1.2,5.012 1.2,7.68 0,1.315 0.08,2.64 -0.136,3.938 -0.209,1.246 -0.406,2.491 -0.585,3.742 -0.319,0.96 -0.64,1.92 -0.96,2.88 -0.521,0.867 -0.986,1.734 -1.439,2.64 -1.733,1.731 -3.451,3.304 -4.561,5.521 -0.143,0.57 -0.293,1.122 -0.479,1.68 v 0.72 l -0.24,0.96 v 0.721 l -0.24,0.72 c 0,0.8 0,1.6 0,2.399 l -0.24,0.721 c 0,0.56 0,1.12 0,1.68 l 0.24,0.72 c 0,0.48 0,0.96 0,1.44 l 0.24,0.72 v 0.72 c 0.64,0.48 1.28,0.96 1.92,1.44 l 0.96,0.48 c 0.969,0.727 1.938,1.453 2.906,2.18 1,0.75 1.854,1.63 2.854,2.38 1.912,1.435003 3.367,3.365003 5.28,4.800003 l 0.72,0.96 0.96,0.72 c 2.245,1.122 4.384,2.433 6.629,3.555 2.107,1.053 4.258,2.418 6.092,3.886 0.571,0.715 1.132,1.43 1.68,2.16 0.988,1.978 1.771,3.974 2.64,6 0.096,0.768 0.186,1.535 0.295,2.3 0.324,2.267 0.426,4.437 0.426,6.724 0,0.982 0.037,1.959 -0.084,2.934 -0.134,1.066 -0.041,2.128 -0.158,3.186 -0.236,2.122 -0.479,4.178 -0.479,6.314 0,2.242 0.357,4.445 0.637,6.668 0.124,0.997 0.404,1.958 0.648,2.933 0.301,1.204 0.479,2.329 0.615,3.565 0.229,2.076 0.26,4.088 0.26,6.178 0,2.087 0,4.174 0,6.262 0,2.058 -0.219,4.258 0.01,6.301 0.235,2.119 0.471,4.241 0.734,6.357 0.278,2.22 0.696,4.354 0.696,6.594 0,1.147 0.24,2.242 0.24,3.385 0,1.12 0,2.241 0,3.361 0,2.083 0,4.165 0,6.247 0,1.108 -0.24,2.187 -0.24,3.276 0,1.082 0.106,2.221 -0.072,3.289 -0.192,1.156 -0.168,2.285 -0.168,3.455 0,1.098 -0.24,2.168 -0.24,3.279 0,0.504 -0.24,1.003 -0.24,1.507 0,0.501 0.062,1.037 -0.021,1.532 -0.188,1.131 -0.135,2.254 -0.322,3.377 -0.361,2.165 -0.617,4.383 -0.617,6.576 l -0.239,1.201 c 0,1.199 0,2.4 0,3.6 l 0.239,0.961 c 0.48,0.959 0.96,1.92 1.44,2.879 l 0.72,0.721 0.48,0.959 c 1.021,1.021 1.776,2.209 2.64,3.361 l 0.24,0.959 0.479,0.721 c 0.146,0.727 0.301,1.441 0.48,2.16 0.526,0.701 1.059,1.299 1.68,1.92 0.356,0.713 0.664,1.42 0.96,2.16 l 0.229,1.196"
     id="path12"
     inkscape:connector-curvature="0"
     style="clip-rule:evenodd;fill:#010101;fill-rule:evenodd" /><g
     id="g18"
     transform="translate(-93.383281,-18.593753)"><path
       d="m 310.46,269.966 -0.961,-0.24 -0.479,-0.479 -0.48,-0.721 c -0.16,-0.48 -0.319,-0.961 -0.479,-1.439 l -0.48,-0.721 -0.239,-0.721 -0.48,-0.719 -0.72,-0.48 -0.48,-0.48 -0.72,-0.48 c -0.48,-0.158 -0.961,-0.318 -1.44,-0.479 l -0.72,-0.48 h -0.72 c -0.72,-0.24 -1.44,-0.48 -2.16,-0.721 h -0.72 c -0.48,-0.16 -0.961,-0.32 -1.44,-0.48 h -0.72 l -0.72,-0.238 h -0.48 l -0.24,0.238 -0.479,0.24 -0.24,0.24 c 0,0.16 0,0.32 0,0.48 l 0.48,0.24 c 0.421,-0.141 0.804,-0.283 1.199,-0.48 0.48,0.24 0.961,0.48 1.44,0.721 l 0.24,0.48 0.479,0.238 h 0.721 l 0.72,0.48 0.96,0.24 h 0.72 c 0.871,0.436 1.769,0.766 2.641,1.199 0.319,0.48 0.64,0.961 0.96,1.441 -0.721,0 -1.439,0 -2.16,0 -0.967,-0.322 -1.965,-0.502 -2.88,-0.961 -0.571,-0.143 -1.123,-0.293 -1.681,-0.48 l -0.479,-0.479 c -1.306,-0.436 -2.606,-0.824 -3.84,-1.441 h -0.721 v 0.24 h -0.479 l -0.24,0.24 v 0.48 l 1.2,0.48 1.2,0.24 c 1.624,0.648 3.521,1.152 5.02,2.051 1.659,0.996 3.457,1.461 5.3,2.029 l -0.239,0.959 c 0,1.76 0,3.52 0,5.279 l 0.239,1.201 c 0,1.92 0,3.84 0,5.76 -0.356,1.43 -0.671,2.875 -0.96,4.32 l -0.72,-0.24 -0.48,-0.48 v -0.48 c -0.218,-0.652 -0.411,-1.303 -0.72,-1.92 l -0.24,-0.24 h -0.72 l -0.24,0.961 v 0.959 c 0.146,0.727 0.301,1.443 0.48,2.16 v 0.961 l -0.24,0.959 -0.479,0.721 -0.96,0.48 c -0.319,-0.32 -0.64,-0.641 -0.96,-0.961 l -0.24,-0.719 c 0,-0.48 0,-0.961 0,-1.441 l -0.24,-0.719 v -0.721 l -0.479,-0.48 0.239,-0.48 c 0,-0.398 0,-0.799 0,-1.199 l -0.239,-0.24 v -0.48 l 0.239,-0.479 0.24,-0.24 -0.72,-0.961 c -0.425,0.637 -0.719,1.195 -0.96,1.92 v 0.721 l 0.239,0.721 c 0,0.48 0,0.959 0,1.439 l -0.239,0.721 h 0.239 l 0.24,0.479 c 0,0.48 0,0.961 0,1.441 -0.319,0 -0.64,0 -0.96,0 -0.4,-0.4 -0.801,-0.801 -1.2,-1.201 0,-0.479 0,-0.959 0,-1.439 l -0.239,-0.48 c 0,-0.479 0,-0.959 0,-1.439 l -0.24,-0.721 c 0,-0.639 0,-1.279 0,-1.92 l -0.24,-0.48 v -0.719 l -0.24,-0.721 v -0.719 l -0.239,-0.721 v -0.48 l -0.24,-0.719 c -0.239,0 -0.479,0 -0.72,0 l -0.24,0.479 -0.24,0.24 -0.24,6.961 h -0.239 l -0.24,-0.721 v -0.721 l -0.24,-0.719 c 0,-2.48 0,-4.959 0,-7.439 l 0.24,-0.721 v -0.721 l 0.24,-0.719 0.239,0.238 c 0,0.24 0,0.48 0,0.721 l 0.24,0.24 v 0.24 c 0.16,0.16 0.32,0.32 0.48,0.48 h 0.239 l 0.24,-0.24 c 0,-0.16 0,-0.32 0,-0.48 l 0.24,-0.48 c 0,-0.318 0,-0.639 0,-0.959 l 0.24,-0.24 -0.24,-0.24 c -0.319,-0.16 -0.64,-0.32 -0.96,-0.48 -0.24,0 -0.48,0 -0.72,0 l -0.24,-0.24 -0.24,-0.479 v -0.721 c -0.24,-0.961 -0.48,-1.92 -0.72,-2.881 0,-1.6 0,-3.199 0,-4.799 l 0.239,-0.961 v -0.959 c 0.497,-1.99 1.038,-3.992 1.44,-6 -0.344,-2.4 -0.72,-4.775 -0.72,-7.201 -0.317,-1.109 -0.535,-2.117 -0.679,-3.264 -0.125,-0.998 -0.006,-1.999 -0.148,-2.999 -0.148,-1.045 -0.497,-2.044 -0.646,-3.084 -0.159,-1.11 -0.224,-2.276 -0.447,-3.373 -0.429,-2.108 -0.987,-4.191 -1.512,-6.284 -0.252,-1.008 -0.741,-1.914 -1.069,-2.897 -0.357,-1.073 -0.514,-2.157 -0.673,-3.274 -0.172,-1.201 -0.491,-2.416 -0.586,-3.624 -0.044,-0.562 0.087,-1.158 -0.005,-1.714 -0.1,-0.594 -0.235,-1.182 -0.235,-1.785 0,-2.521 0.362,-5.043 0.72,-7.541 0.615,-1.846 0.952,-3.699 1.68,-5.52 0,-1.2 0,-2.4 0,-3.6 l 0.24,-1.201 c -0.146,-0.725 -0.301,-1.441 -0.479,-2.16 l -0.48,-0.959 -0.72,-0.961 c -1.68,-3.92 -2.654,-8.035 -3.183,-12.257 -0.282,-2.257 -0.657,-4.466 -0.657,-6.743 0,-1.98 -0.203,-4.092 0.042,-6.057 0.146,-1.168 0.292,-2.335 0.438,-3.503 -0.588,-1.472 -1.092,-2.972 -1.68,-4.44 -0.601,-1.499 -1.329,-2.814 -2.16,-4.199 l -1.2,-0.721 -0.24,0.24 c 0,0.16 0,0.32 0,0.48 0.24,0.24 0.48,0.48 0.721,0.72 v 0.24 l 0.239,0.239 -0.479,1.44 c -0.965,1.206 -2.027,2.269 -3.12,3.36 -1.247,0.748 -2.354,1.651 -3.6,2.4 l -0.96,0.959 0.479,0.24 c 0.319,0 0.64,0 0.96,0 0.896,-0.447 1.739,-0.989 2.641,-1.439 l 0.479,-0.721 c 0.72,-0.479 1.44,-0.959 2.16,-1.439 0.64,-0.641 1.28,-1.28 1.92,-1.92 l 0.24,-0.721 c 0.479,0.641 0.96,1.28 1.439,1.92 0.24,0.961 0.48,1.92 0.721,2.881 0,0.72 0,1.439 0,2.16 l -0.24,0.959 v 1.201 l -0.24,0.959 c 0,0.721 0,1.44 0,2.16 l -0.24,1.2 v 0.96 c 0.226,1.124 0.495,2.236 0.721,3.359 0,1.201 0,2.4 0,3.601 l 0.239,0.96 v 1.2 c 0.189,0.757 0.431,1.436 0.721,2.16 -0.16,0.8 -0.32,1.601 -0.48,2.399 l -0.479,1.2 c -0.16,0.8 -0.32,1.601 -0.48,2.4 l -0.479,1.2 -0.24,1.199 -0.48,1.2 0.24,1.44 c -0.248,1.484 -0.482,2.891 -0.96,4.32 -0.31,2.162 -0.96,4.439 -0.96,6.621 0,1.191 0,2.382 0,3.572 0,1.078 0.24,2.152 0.24,3.246 0.633,1.898 1.264,3.728 2.16,5.52 1.02,4.084 0.976,8.516 0.455,12.68 -0.283,2.262 -0.58,4.518 -0.903,6.773 -0.143,0.999 -0.032,2.072 -0.032,3.084 0,1.006 -0.088,2.047 0.055,3.043 0.307,2.148 0.613,4.299 0.92,6.447 0.15,1.043 0.466,2.189 0.466,3.24 0,1.092 0.239,2.164 0.239,3.24 0,1.105 0.24,2.197 0.24,3.287 0,1.064 0,2.129 0,3.193 0,2.16 0,4.32 0,6.48 0,2.16 0,4.318 0,6.479 0,0.518 0.08,1.098 -0.006,1.607 -0.09,0.537 -0.234,1.086 -0.234,1.633 0,1.092 -0.239,2.164 -0.239,3.24 0,1.053 0.116,2.199 -0.032,3.24 -0.154,1.076 -0.053,2.205 -0.229,3.258 -0.182,1.084 -0.099,2.148 -0.252,3.223 -0.154,1.076 -0.054,2.203 -0.229,3.258 -0.172,1.027 -0.219,1.951 -0.219,2.994 -0.513,2.049 -0.781,4.117 -1.24,6.178 -0.266,1.197 -0.486,2.35 -0.639,3.564 -0.118,0.945 -0.449,1.854 -0.555,2.801 -0.232,2.086 -0.687,4.279 -0.687,6.377 0,2.166 0.31,4.27 0.548,6.418 0.058,0.514 0.115,1.029 0.172,1.543 0.736,1.965 1.461,3.881 2.4,5.76 0,0.719 0,1.439 0,2.16 l 0.239,0.959 v 0.961 c 0.274,1.371 0.622,2.723 0.96,4.08 v 0.959 c 0.146,0.727 0.301,1.443 0.48,2.16 0,0.721 0,1.439 0,2.16 l 0.24,0.961 -0.24,0.959 c 0,2.209 0,4.416 0,6.623 0,2.084 -0.459,4.246 -0.717,6.312 -0.258,2.074 -0.721,4.094 -1.018,6.164 -0.319,2.236 -0.584,4.48 -0.863,6.723 -0.301,2.41 0.197,4.83 0.197,7.234 0,2.34 0,4.682 0,7.023 l 0.24,0.961 c 0,0.639 0,1.279 0,1.92 0.601,2.4 1.195,4.771 1.68,7.199 0,0.879 0,1.76 0,2.641 l -0.239,0.959 v 1.439 l -0.48,0.961 -0.24,1.199 c -0.454,1.137 -0.894,2.266 -1.439,3.361 -0.976,1.299 -1.972,2.449 -3.12,3.6 -0.297,0.738 -0.604,1.447 -0.96,2.16 -0.386,1.922 -0.815,3.836 -1.2,5.76 l -0.479,0.959 -0.24,1.201 c -0.32,0.639 -0.641,1.279 -0.96,1.92 -0.48,0.639 -0.961,1.279 -1.44,1.92 l -0.96,0.48 -0.96,0.719 -1.2,0.48 c -0.273,0.549 -0.445,1.129 -0.72,1.68 l -0.48,0.48 -0.239,0.721 -0.48,0.479 c -0.396,0.197 -0.779,0.34 -1.2,0.48 l -0.72,-0.48 h -0.96 l -0.96,0.24 -0.72,0.48 -0.96,0.24 h -0.48 l -0.72,-0.48 v -1.199 l -0.479,0.24 -0.48,0.479 c -0.32,0.16 -0.641,0.32 -0.96,0.48 h -0.479 l -0.48,0.24 -0.48,-0.24 -0.479,-0.48 c 0.16,-0.16 0.319,-0.318 0.479,-0.479 v -0.24 l 0.24,-0.24 h 0.24 l 0.24,-0.24 c 0,-0.24 0,-0.48 0,-0.721 l -0.24,-0.24 c -0.24,0 -0.48,0 -0.721,0 l -0.239,-0.238 c -0.481,0.479 -0.96,0.959 -1.44,1.439 l -0.24,0.721 -0.479,0.479 -0.479,0.24 h -0.721 l -0.72,-0.24 -0.24,-0.479 c 0,-0.32 0,-0.641 0,-0.961 l -0.479,-0.24 -0.48,0.24 c -0.16,0.32 -0.32,0.641 -0.48,0.961 v 0.479 l -0.479,0.24 c -0.159,0 -0.319,0 -0.479,0 l -0.48,-0.24 c -0.16,-0.16 -0.319,-0.32 -0.479,-0.479 h -0.24 c 0,-0.48 0,-0.961 0,-1.441 0.319,0 0.64,0 0.96,0 l 0.24,-0.24 h 0.239 l 0.24,-0.24 v -0.238 l -0.24,-0.24 c -0.479,0 -0.96,0 -1.439,0 0.513,-1.029 0.927,-2.094 1.439,-3.121 0.48,-0.641 0.96,-1.281 1.44,-1.92 l 0.48,-0.959 c 1.158,-1.549 2.434,-3.006 3.6,-4.561 0.873,-1.75 1.535,-3.355 1.92,-5.279 0.641,-1.281 1.279,-2.561 1.92,-3.84 l 0.72,-0.721 0.479,-0.961 c 0.457,-0.609 0.903,-1.143 1.44,-1.68 l 0.48,-0.959 c 0.456,-0.609 0.901,-1.143 1.439,-1.68 0.8,-1.602 1.599,-3.201 2.4,-4.801 0.47,-4.225 1.005,-8.457 0.72,-12.721 -0.138,-2.061 -0.271,-4.121 -0.5,-6.178 -0.239,-2.156 -0.712,-4.244 -0.981,-6.398 -0.271,-2.158 -0.679,-4.352 -0.679,-6.527 0,-1.037 -0.239,-2.043 -0.239,-3.072 0,-1.137 -0.083,-2.166 -0.244,-3.291 -0.17,-1.189 -0.236,-2.279 -0.236,-3.479 0,-1.045 -0.3,-2.189 -0.447,-3.227 -0.302,-2.115 -0.753,-4.256 -0.753,-6.393 0,-0.684 -0.24,-1.346 -0.24,-2.02 0,-0.756 0.053,-1.523 -0.055,-2.275 -0.221,-1.555 -0.185,-3.09 -0.185,-4.66 -0.345,-1.033 -0.614,-2.084 -0.96,-3.119 0,-0.961 0,-1.92 0,-2.881 l 0.24,-0.721 h 0.239 c 0.24,0.24 0.48,0.48 0.72,0.721 0.32,0 0.641,0 0.961,0 l 0.239,-0.48 h 0.24 c -0.962,-0.721 -1.679,-1.438 -2.399,-2.398 -0.32,-0.641 -0.641,-1.281 -0.961,-1.922 -0.305,-1.523 -0.655,-3.035 -0.959,-4.559 0,-2.641 0,-5.279 0,-7.92 l 0.239,-0.48 c 0,-0.48 0,-0.959 0,-1.439 l 0.24,-0.48 c 0,-0.561 0,-1.119 0,-1.68 l 0.239,-0.721 -0.479,-0.24 -0.479,0.24 -0.24,0.48 c 0,0.32 0,0.641 0,0.959 -0.659,-1.098 -1.204,-2.17 -1.68,-3.359 l -0.24,-1.199 -0.48,-0.961 -0.24,-1.199 -0.479,-1.201 c -0.16,-0.799 -0.319,-1.6 -0.479,-2.398 l -0.48,-1.201 c -0.24,-1.199 -0.48,-2.4 -0.721,-3.6 l -0.479,-1.199 -0.239,-1.201 -0.48,-0.959 c -0.479,-2.152 -0.957,-4.307 -1.435,-6.459 -0.224,-1.006 -0.209,-2.039 -0.462,-3.047 -0.268,-1.07 -0.382,-2.117 -0.504,-3.215 -0.12,-1.082 -0.24,-2.129 -0.24,-3.217 0,-1.023 -0.239,-2.031 -0.239,-3.047 0,-1.146 0,-2.293 0,-3.439 0,-0.959 0.239,-1.904 0.239,-2.859 0,-3 0.631,-5.83 0.961,-8.797 l 0.72,-0.48 c 0.72,-0.721 1.44,-1.439 2.159,-2.16 l 0.48,-0.721 c 0.721,-0.719 1.439,-1.439 2.16,-2.158 v -0.721 c -0.426,0.213 -0.805,0.455 -1.2,0.721 -0.319,0.32 -0.64,0.639 -0.96,0.959 l -0.72,0.48 c -0.319,0.32 -0.64,0.641 -0.96,0.959 l -0.721,0.48 -0.479,0.48 c -0.396,0.264 -0.774,0.508 -1.2,0.721 h -0.72 l -0.72,0.238 c -1.098,-0.363 -2.289,-0.646 -3.264,-1.295 -1.117,-0.744 -2.03,-1.598 -2.977,-2.545 -0.366,-0.549 -0.664,-1.09 -0.96,-1.68 v -1.199 h -0.24 l -0.24,-0.48 h -0.24 l -0.239,0.24 -0.24,0.721 c 0,0.48 0,0.959 0,1.439 l 0.24,0.719 0.479,0.721 0.24,0.721 0.721,0.479 0.479,0.721 0.72,0.721 c 0.782,0.521 1.618,0.918 2.4,1.439 1.28,0.32 2.56,0.641 3.84,0.961 -0.259,2.07 -0.96,4.117 -0.96,6.211 0,2.242 0,4.486 0,6.73 0,0.979 0.24,1.936 0.24,2.916 0,1.143 0.17,2.207 0.24,3.342 0.071,1.146 -0.047,2.242 -0.207,3.373 -0.143,0.992 -0.016,2.01 -0.141,3.012 -0.279,2.229 -0.688,4.32 -1.307,6.482 -0.553,1.932 -1.103,3.863 -1.654,5.793 -0.607,2.121 -1.432,4.141 -1.965,6.275 -0.257,1.023 -0.582,2.037 -0.873,3.051 -0.287,1.006 -0.347,2.104 -0.495,3.139 -0.396,2.77 -0.387,5.459 -0.079,8.234 -0.308,0.617 -0.502,1.268 -0.72,1.92 v 0.721 c -0.212,0.426 -0.456,0.805 -0.721,1.199 l -0.479,0.48 -0.72,0.24 c -0.24,0.24 -0.48,0.48 -0.721,0.721 0,0.32 0,0.641 0,0.959 l 0.48,0.48 h 0.48 l 0.479,-0.24 0.24,-0.24 0.479,-0.24 0.24,-0.48 v -0.238 l 0.48,-0.24 c 0.312,2.176 0.862,4.271 1.137,6.463 0.258,2.059 0.303,4.037 0.303,6.113 0,4.328 0.008,8.768 -1.38,12.924 -0.561,1.68 -1.081,3.332 -1.739,4.979 -0.176,0.879 -0.333,1.758 -0.48,2.641 l -0.48,1.199 c -0.511,2.555 -0.929,5.127 -1.439,7.682 v 1.439 c -0.354,1.766 -0.427,3.514 -0.721,5.279 l 2.641,15.84 -0.48,0.48 c 0,0.32 0,0.641 0,0.961 l 0.24,0.719 v 0.48 c 0.16,0.32 0.32,0.641 0.48,0.961 v 0.479 l -0.24,0.721 c -0.479,0.719 -0.96,1.439 -1.439,2.16 l -0.721,0.48 -0.48,0.479 c -0.55,0.367 -1.089,0.666 -1.68,0.961 l -0.96,0.24 c -0.72,0 -1.439,0 -2.159,0 l -0.961,0.24 c -2.399,0 -4.8,0 -7.199,0 -1.05,0.209 -2.083,0.459 -3.121,0.719 l -0.959,0.48 -0.961,0.24 c -1.824,1.217 -3.796,2.381 -5.76,3.359 l -0.96,0.24 -0.72,0.48 c -0.96,0.24 -1.92,0.48 -2.88,0.721 -0.96,0 -1.92,0 -2.881,0 -0.57,-0.143 -1.122,-0.295 -1.68,-0.48 h -0.72 c -1.849,0.617 -3.678,1.305 -5.521,1.92 -0.479,0 -0.959,0 -1.439,0 -0.588,-0.295 -1.133,-0.596 -1.68,-0.961 l -0.48,-0.719 0.24,-0.721 h 0.48 l 0.239,0.24 h 0.48 l 0.239,-0.24 c -0.159,-0.16 -0.319,-0.32 -0.479,-0.48 v -0.24 l 0.24,-0.238 v -0.24 c 0.239,-0.24 0.479,-0.48 0.72,-0.721 l 1.2,0.721 v -0.48 l 0.239,-0.24 0.24,-0.48 c 0.32,-0.32 0.641,-0.639 0.961,-0.959 v -0.48 c -0.32,0 -0.641,0 -0.961,0 -0.639,0.32 -1.279,0.641 -1.92,0.959 -0.399,0 -0.8,0 -1.199,0 l 0.239,-0.479 c 0.739,-0.369 1.419,-0.83 2.16,-1.201 0.32,-0.32 0.64,-0.639 0.96,-0.959 l 0.24,-0.48 c -0.4,0 -0.801,0 -1.2,0 -0.48,0.24 -0.96,0.48 -1.44,0.721 l -0.479,0.479 -0.479,0.24 h -0.48 c 0.159,-0.16 0.319,-0.32 0.48,-0.479 l 0.479,-0.24 c 0.16,-0.16 0.32,-0.32 0.479,-0.48 v -0.48 l -0.239,-0.24 c 1.067,-0.533 1.973,-1.057 3.12,-1.439 0.399,0 0.8,0 1.199,0 l 0.721,0.48 c 1.262,-0.758 2.577,-1.402 3.84,-2.16 l 1.439,-0.48 c 1.267,-0.76 2.519,-1.5 3.84,-2.16 2.325,-1.859 5.109,-2.934 7.44,-4.799 l 1.439,-0.721 c 0.785,-0.627 1.539,-1.164 2.4,-1.68 0.698,-1.162 1.177,-2.344 1.68,-3.6 l 0.24,-1.441 0.48,-1.199 c 0.363,-2.178 0.48,-4.385 0.48,-6.594 0,-2.111 -0.24,-4.164 -0.24,-6.27 0,-4.779 -0.501,-9.561 -0.827,-14.326 -0.124,-1.816 -0.248,-3.635 -0.373,-5.451 l 0.239,-0.719 c 0,-0.961 0,-1.922 0,-2.881 l -0.239,-0.721 c 0,-2 0,-4 0,-6 l 0.239,-0.719 v -0.961 l 0.24,-0.959 v -0.721 l 0.24,-0.959 v -0.721 l 0.24,-0.961 v -0.719 l 0.24,-0.961 c 0,-0.559 0,-1.119 0,-1.68 0.16,0.32 0.319,0.641 0.479,0.961 l 0.479,0.479 0.24,0.48 0.48,0.24 0.48,0.48 c 0.399,0 0.8,0 1.199,0 l 0.48,-0.48 v -0.48 l -0.24,-0.24 c -0.479,-0.238 -0.96,-0.479 -1.439,-0.719 l -0.48,-0.48 c -0.481,-0.961 -1.173,-1.84 -1.515,-2.865 -0.398,-1.193 -0.639,-2.381 -0.886,-3.615 0,-1.299 -0.018,-2.533 0.196,-3.816 0.195,-1.168 0.412,-2.342 0.645,-3.502 0.229,-1.141 0.635,-2.221 0.863,-3.365 0.252,-1.252 0.456,-2.438 0.456,-3.717 l -0.96,-0.959 c 0,-2.605 -0.96,-5.076 -0.96,-7.68 l -0.24,-1.201 v -1.439 l -0.24,-1.199 v -1.441 l -0.239,-1.199 c 0,-2.26 -0.24,-4.461 -0.24,-6.721 l -0.239,-1.199 c 0,-3.061 -0.24,-6.059 -0.24,-9.119 l -0.24,-1.201 c 0,-1.359 0,-2.721 0,-4.08 l -0.24,-1.199 c 0,-4.143 -0.321,-8.467 0.495,-12.555 0.868,-4.344 1.405,-8.713 2.366,-13.043 0.946,-4.261 1.712,-8.539 2.658,-12.803 v 0.24 l 0.24,0.24 0.24,0.479 v 0.479 c 0.32,0.32 0.642,0.64 0.96,0.961 l 0.24,-0.48 c 0,-0.4 0,-0.801 0,-1.2 -0.275,-0.825 -0.685,-1.575 -0.96,-2.399 l -0.48,-0.48 c -0.362,-0.907 -0.763,-1.766 -1.199,-2.641 l -0.24,-1.199 v -1.2 l -0.24,-1.2 c 0.147,-0.884 0.305,-1.762 0.48,-2.64 v -1.44 c 0.729,-2.192 0.987,-4.459 1.439,-6.72 0,-1.005 0.075,-1.888 0.24,-2.88 -0.353,-2.115 -0.054,-4.194 -0.247,-6.314 -0.209,-2.289 -0.668,-4.515 -0.896,-6.799 -0.195,-1.955 -0.686,-3.953 -1.071,-5.881 -0.452,-2.255 -0.666,-4.525 -1.077,-6.788 -0.457,-2.517 -0.308,-5.112 -0.308,-7.657 0,-2.439 0.483,-4.979 0.959,-7.361 l 0.24,0.24 0.48,0.24 c 0.399,0 0.8,0 1.199,0 l 0.24,-0.24 c 0,-0.16 0,-0.319 0,-0.479 -0.96,-0.32 -1.92,-0.64 -2.88,-0.96 -0.32,-0.32 -0.64,-0.641 -0.96,-0.96 l -0.48,-0.72 -0.239,-0.721 -0.479,-0.72 c -0.425,-1.274 -0.776,-2.565 -1.201,-3.84 v -0.96 l -0.239,-0.721 c 0,-1.76 0,-3.52 0,-5.279 l 0.239,-0.961 v -0.719 l 0.24,-0.721 v -0.72 l 0.24,-0.72 c 0,-0.48 0,-0.961 0,-1.44 l 0.24,-0.479 v -0.721 c 0.16,-0.48 0.32,-0.96 0.48,-1.439 v -0.48 c 0.47,-1.412 1.095,-2.603 1.92,-3.84 v -0.24 c -0.16,-0.16 -0.32,-0.32 -0.48,-0.48 -0.24,0 -0.48,0 -0.721,0 l -0.479,0.24 -0.479,0.48 -0.24,0.48 c -0.265,1.585 -0.718,3.1 -0.944,4.692 -0.092,0.64 -0.427,1.239 -0.507,1.88 -0.107,0.857 -0.212,1.715 -0.335,2.57 -0.216,1.512 -0.614,3.108 -0.614,4.634 0,1.647 0,3.296 0,4.943 0.46,1.607 0.981,3.192 1.44,4.8 0.641,0.96 1.279,1.92 1.92,2.88 0,1.622 -0.24,3.193 -0.24,4.813 0,0.711 -0.049,1.438 0,2.146 0.051,0.754 0.24,1.476 0.24,2.234 0,1.563 0.033,3.043 0.254,4.593 0.238,1.661 0.466,3.253 0.466,4.933 0.76,2.657 1.05,5.426 1.439,8.16 -0.356,2.15 -0.749,4.172 -1.439,6.24 -0.673,2.016 -1.487,3.982 -2.16,6 -0.479,0.8 -0.96,1.6 -1.439,2.4 l -0.48,1.439 c -1.173,1.955 -2.571,3.703 -3.6,5.76 l -0.72,0.961 c -1.344,2.686 -2.498,5.475 -3.84,8.16 -0.189,0.756 -0.431,1.435 -0.721,2.159 l -0.24,1.2 -0.479,0.96 c -0.16,0.8 -0.32,1.601 -0.479,2.399 0,1.699 0.176,3.507 -0.104,5.183 -0.298,1.79 -0.558,3.587 -0.856,5.378 -0.828,2.072 -1.164,4.23 -1.99,6.297 -0.419,1.047 -0.937,2.004 -1.295,3.078 -0.333,1 -0.805,1.926 -1.274,2.865 l -1.44,0.961 c 0.16,0.32 0.32,0.639 0.48,0.959 v 0.721 l -0.24,0.719 v 0.48 c -0.274,0.551 -0.445,1.131 -0.72,1.68 l -0.48,0.48 -0.239,0.48 -0.48,0.24 c -0.4,0 -0.801,0 -1.2,0 l 0.24,-0.961 v -0.959 c 0.345,-1.379 0.854,-2.695 1.2,-4.08 0,-0.641 0,-1.279 0,-1.92 h -0.48 l -0.48,0.479 v 0.24 l -0.239,0.24 -0.24,0.48 -0.239,0.24 -0.48,0.24 -0.48,-0.24 v 0.48 l -0.24,0.238 0.24,0.24 v 0.48 l 0.961,0.48 -0.24,1.199 c -1.137,2.842 -2.898,5.303 -4.801,7.68 l -0.479,-0.479 c 0,-0.561 0,-1.121 0,-1.682 0.198,-0.395 0.34,-0.779 0.479,-1.199 0,-0.32 0,-0.639 0,-0.959 0.146,-0.727 0.301,-1.441 0.48,-2.16 0.852,-1.705 1.307,-3.418 1.68,-5.281 v -1.199 h -0.479 c -0.16,0.16 -0.32,0.32 -0.48,0.48 l -0.239,0.479 v 0.24 l -0.24,0.48 c -0.16,0.16 -0.32,0.32 -0.48,0.48 l 0.48,0.719 v 0.721 c -0.143,0.57 -0.294,1.123 -0.48,1.68 -0.32,0.48 -0.64,0.961 -0.96,1.439 -0.143,0.57 -0.294,1.123 -0.479,1.682 -0.32,0.48 -0.641,0.959 -0.961,1.439 -0.159,0.48 -0.319,0.959 -0.479,1.439 -0.479,0.721 -0.96,1.439 -1.44,2.16 l -0.72,0.24 -0.239,-0.721 c 0,-0.879 0,-1.76 0,-2.639 0.186,-0.557 0.337,-1.109 0.479,-1.68 0,-0.561 0,-1.121 0,-1.682 l 0.479,-0.479 c 0.141,-0.422 0.283,-0.805 0.48,-1.201 v -0.719 l 0.24,-0.48 v -0.721 c 0.213,-0.426 0.455,-0.803 0.72,-1.199 v -0.48 l 0.24,-0.48 v -0.24 l 0.239,-0.479 v -0.48 l 0.24,-0.48 v -0.48 l -0.24,-0.48 h -0.239 c -0.24,0.24 -0.479,0.48 -0.72,0.721 v 0.24 c -0.16,0.16 -0.32,0.32 -0.48,0.48 h -0.48 l 0.24,1.199 v 1.201 c -0.453,1.809 -1.086,3.373 -1.92,5.039 -0.383,0.51 -0.748,0.99 -1.199,1.439 -0.24,0 -0.48,0 -0.721,0 l -0.24,-0.719 c 0.289,-1.449 0.67,-2.873 0.961,-4.32 l 0.479,-0.961 c 0.57,-2.855 1.589,-5.551 2.16,-8.4 l 0.479,-0.959 c 0.18,-0.719 0.335,-1.434 0.48,-2.16 l 0.24,-0.24 c 0.319,0 0.64,0 0.959,0 l 0.721,0.24 c 2.32,0 4.641,0 6.96,0 l 0.72,-0.24 h 0.721 l 0.72,-0.24 h 0.72 c 0.48,-0.159 0.96,-0.319 1.439,-0.479 0,-0.16 0,-0.319 0,-0.479 -0.159,-0.16 -0.319,-0.32 -0.479,-0.48 -0.64,0 -1.28,0 -1.92,0 l -0.72,0.24 c -0.641,0 -1.28,0 -1.92,0 l -0.48,0.24 c -1.04,0 -2.08,0 -3.12,0 l -0.72,-0.24 h -0.721 l -0.479,-0.24 c 0.712,-0.355 1.421,-0.664 2.16,-0.96 l 1.2,-0.24 h 1.199 l 1.201,-0.239 h 1.199 l 1.2,-0.24 h 1.2 l 0.24,-0.48 0.479,-0.48 0.24,-0.479 0.479,-0.479 -0.479,-0.24 c -0.479,0 -0.96,0 -1.44,0 -0.549,0.275 -1.13,0.445 -1.68,0.72 -0.721,0 -1.439,0 -2.16,0 l -0.96,0.24 h -0.96 c -0.888,0.222 -1.771,0.431 -2.641,0.72 l -0.719,0.48 -0.961,0.24 c -0.549,0.365 -1.089,0.664 -1.68,0.959 l -0.72,0.721 -0.72,0.48 -0.721,0.719 -0.48,0.721 -0.719,0.72 c -0.24,0 -0.48,0 -0.721,0 l -0.24,-0.239 c 0.538,-0.539 0.984,-1.072 1.44,-1.681 l 0.239,-0.96 c 0.32,-0.641 0.641,-1.279 0.961,-1.92 0.457,-0.609 0.902,-1.143 1.439,-1.68 l 0.961,-0.48 c 0.973,-1.622 2.178,-3.083 3.359,-4.561 1.826,-1.461 3.541,-3.061 5.196,-4.716 1.657,-1.657 2.591,-3.952 3.444,-6.083 0,-2.145 0,-4.289 0,-6.434 0,-2.262 0.239,-4.469 0.239,-6.733 0,-2.126 -0.065,-4.198 0.284,-6.296 0.369,-2.223 0.646,-4.45 1.36,-6.592 0.354,-1.061 0.724,-2.139 0.995,-3.227 1.28,-2.56 2.561,-5.119 3.84,-7.68 l 0.721,-0.959 0.48,-0.961 0.239,-0.959 0.479,-0.961 0.24,-0.96 0.24,0.24 0.24,0.479 v 0.24 l 0.24,0.48 v 0.24 l 0.24,0.24 0.479,0.239 h 0.24 v -0.72 l -0.24,-0.961 v -0.719 c -0.562,-2.246 -1.188,-4.523 -1.92,-6.721 v -0.96 l -0.24,-0.96 c 0,-0.641 0,-1.279 0,-1.92 l 0.24,-0.721 -0.24,-2.399 c 0.483,-4.347 1.2,-8.64 2.587,-12.8 0.296,-0.888 0.373,-1.838 0.669,-2.728 0.386,-1.156 0.719,-2.29 1.015,-3.473 0.526,-2.106 0.977,-4.222 1.215,-6.378 0.179,-1.607 0.274,-3.162 0.274,-4.779 0,-1.544 -0.24,-3.089 -0.24,-4.644 l 0.24,-0.96 v -1.2 c 0.267,-1.064 0.694,-2.056 0.961,-3.12 0.319,-0.64 0.64,-1.279 0.959,-1.92 l 0.721,-0.72 0.48,-0.96 c 0.878,-0.659 1.624,-1.384 2.399,-2.16 0.641,-0.319 1.279,-0.64 1.92,-0.96 0.719,-0.18 1.434,-0.335 2.16,-0.479 l 0.72,-0.48 c 0.64,-0.16 1.28,-0.32 1.92,-0.479 h 0.96 c 0.594,0.197 1.119,0.439 1.681,0.72 h 0.72 c 0.887,-0.222 1.753,-0.498 2.64,-0.72 l 0.721,-0.48 c 1.542,-0.516 3.013,-1.164 4.56,-1.68 0.88,0 1.76,0 2.64,0 0.595,0.198 1.119,0.439 1.68,0.72 -0.185,0.558 -0.337,1.11 -0.479,1.68 l 0.24,0.96 v 0.721 l 0.239,0.96 c 0.32,0.479 0.641,0.96 0.961,1.439 l 0.72,0.48 c 0.24,0 0.48,0 0.72,0 l 0.24,-0.24 0.24,-0.479 -0.48,-0.24 -0.72,-0.721 c -0.348,-0.694 -0.531,-1.408 -0.72,-2.159 0,-0.8 0,-1.601 0,-2.4 0.72,0 1.44,0 2.16,0 l 0.96,-0.24 h 1.199 c 0.641,-0.159 1.279,-0.319 1.92,-0.479 0.641,-0.32 1.28,-0.64 1.92,-0.96 l 0.961,-0.24 0.72,-0.72 c 0.591,-0.296 1.13,-0.594 1.68,-0.96 1.47,-1.471 2.931,-3.031 3.601,-5.04 l 0.479,-0.721 c 0.319,-0.32 0.64,-0.64 0.96,-0.96 l 0.48,-0.72 0.479,-0.479 0.24,-0.721 0.479,-0.479 c 0.219,-0.654 0.502,-1.267 0.721,-1.92 0,-0.721 0,-1.44 0,-2.16 l -0.48,0.24 -0.479,0.479 c -0.297,0.89 -0.663,1.746 -0.96,2.64 l -0.48,0.48 c -1.182,2.362 -2.955,4.155 -4.8,6 -1.097,0.658 -2.097,1.393 -3.12,2.16 -0.868,0.434 -1.685,1.01 -2.582,1.369 -0.969,0.388 -1.965,0.642 -2.938,1.03 -0.801,0.16 -1.6,0.32 -2.4,0.48 h -0.479 l -0.721,-0.24 h -0.72 l -0.72,-0.24 h -0.48 c -0.653,-0.217 -1.267,-0.502 -1.92,-0.72 -0.297,-0.89 -0.663,-1.746 -0.96,-2.64 v -0.48 l -0.24,-0.72 c 0,-0.4 0,-0.8 0,-1.2 l -0.239,-0.72 v -0.72 c -0.604,-1.206 -0.925,-2.466 -1.681,-3.601 v -0.72 c -0.16,-0.48 -0.319,-0.96 -0.479,-1.44 v -0.72 c -0.16,-0.479 -0.32,-0.96 -0.48,-1.439 v -0.721 l -0.24,-0.72 v -0.72 l -0.24,-0.721 c 0,-0.72 0,-1.439 0,-2.159 0.24,-0.721 0.48,-1.44 0.721,-2.16 l 0.24,-0.24 c 0.239,0 0.479,0 0.72,0 l 0.239,-0.24 0.24,0.721 0.48,0.479 h 0.48 l 0.479,0.24 0.239,0.479 v 0.721 l -0.239,0.72 v 0.72 l -0.24,0.48 v 0.479 l 0.24,0.24 0.72,0.24 0.48,-0.96 c 0.16,-0.64 0.319,-1.28 0.479,-1.92 v -1.2 l 0.24,-0.96 -0.24,-1.2 v -0.96 l -0.239,-0.96 c -0.72,-0.72 -1.44,-1.439 -2.16,-2.16 l -0.721,-0.479 c -0.72,-0.24 -1.44,-0.48 -2.16,-0.721 l 0.24,-1.2 c 0,-0.8 0,-1.6 0,-2.399 l 0.24,-1.2 v -1.2 l 0.24,-1.2 v -0.96 c 0.16,-0.8 0.32,-1.6 0.48,-2.399 0.514,-1.028 0.925,-2.093 1.439,-3.12 0.97,-1.293 2.075,-2.156 3.359,-3.12 1.462,-0.729 2.985,-1.482 4.503,-2.089 1.632,-0.653 3.397,-0.846 5.098,-1.271 0.801,0 1.6,0 2.4,0 l 1.199,-0.239 1.2,0.239 h 1.2 l 1.199,0.24 h 1.201 c 0.641,0.16 1.279,0.32 1.92,0.48 l 0.96,0.479 c 0.96,0.24 1.92,0.48 2.88,0.721 l 0.96,0.479 0.96,0.24 3.6,4.56 c 0.16,0.641 0.32,1.28 0.48,1.92 0.904,1.81 1.191,3.81 1.68,5.761 v 0.96 l 0.24,0.96 c 0,0.64 0,1.279 0,1.92 l -0.24,0.96 v 0.96 c -0.16,0.64 -0.32,1.279 -0.479,1.92 l -0.24,-0.72 v -0.721 l -0.24,-0.72 c -0.48,-0.479 -0.96,-0.96 -1.44,-1.44 l -0.72,-0.239 -0.479,-0.48 h -0.96 c -0.72,0.24 -1.44,0.48 -2.16,0.72 l -0.721,0.48 c -0.319,0.32 -0.64,0.64 -0.96,0.96 l -0.479,0.72 c 0.16,0.32 0.319,0.64 0.479,0.96 0.24,0.24 0.48,0.48 0.721,0.721 v 0.239 l -0.24,0.24 -0.48,0.24 -0.239,0.24 h -0.721 l -0.239,0.239 -0.24,0.48 h 0.72 c 0.479,0.24 0.96,0.479 1.44,0.72 l 0.479,0.48 0.24,0.479 0.72,0.24 0.48,0.72 c 0.16,0 0.32,0 0.479,0 l 0.48,-0.479 0.24,-0.72 v -0.721 c -0.198,-0.396 -0.34,-0.779 -0.48,-1.2 0,-0.399 0,-0.8 0,-1.199 l 0.48,-0.24 c 0.185,0.558 0.337,1.11 0.479,1.68 v 0.72 c -0.223,0.888 -0.43,1.772 -0.72,2.641 l -0.48,0.72 -0.96,0.72 c -0.48,0 -0.959,0 -1.439,0 l -0.48,0.24 h -0.24 c -0.32,0.16 -0.641,0.32 -0.96,0.48 0.16,0.319 0.32,0.64 0.48,0.96 h 0.24 l 0.239,0.239 c 0.24,0 0.48,0 0.721,0 l 0.479,0.24 0.24,0.24 1.2,-0.48 c 0.561,-0.56 1.119,-1.119 1.68,-1.68 0.646,-1.614 1.337,-3.081 1.68,-4.8 0,-0.561 0,-1.12 0,-1.68 l -0.239,-0.24 v -0.48 l -0.24,-0.479 v -0.24 l -0.24,-0.24 -0.24,-0.479 H 271.1 l -0.48,-0.24 h -0.479 l -0.48,0.24 -0.239,0.24 -0.48,0.239 -0.24,0.24 -0.479,0.24 -0.24,0.24 0.24,-0.721 c 0.479,-0.239 0.96,-0.479 1.439,-0.72 0.479,0 0.96,0 1.44,0 l 0.479,0.24 h 0.48 l 0.24,0.24 c 0.159,0.319 0.319,0.64 0.479,0.96 0,1.04 0,2.079 0,3.119 -0.377,1.133 -0.824,2.233 -1.2,3.36 -0.581,0.871 -1.101,1.771 -1.68,2.64 l -0.479,0.48 -0.24,0.72 -0.48,0.721 -0.479,-0.24 -0.24,-0.24 h -0.48 l -0.239,-0.24 c -0.32,0 -0.641,0 -0.96,0 l -0.48,0.24 h -0.479 l -0.721,0.96 2.88,1.92 c -0.185,0.558 -0.337,1.11 -0.479,1.68 v 0.721 l -0.24,0.96 v 0.96 l -0.24,0.96 c 0,1.52 0,3.04 0,4.56 l 0.24,0.96 c 0,0.96 0,1.92 0,2.88 l 0.24,0.96 c 2.791,2.094 5.609,4.146 8.4,6.24 l 0.96,0.48 c 1.089,1.089 2.127,2.195 3.359,3.12 l 0.721,0.96 0.96,0.72 c 1.883,2.511 4.319,3.647 7.166,4.786 2.698,1.08 4.922,2.6 7.233,4.335 1.134,1.512 1.912,3.186 2.88,4.8 0.822,2.464 1.44,5.078 1.44,7.68 0,1.288 0,2.575 0,3.863 0,1.366 -0.287,2.706 -0.48,4.057 -0.614,1.847 -0.95,3.7 -1.68,5.521 v 0.24 l 0.24,0.239 0.24,0.479 0.239,0.24 0.48,-0.24 v -0.239 l 0.24,-0.479 c 0,-0.24 0,-0.48 0,-0.721 l 0.239,-0.48 v -0.239 l 0.24,-0.479 c 0,2.239 0,4.479 0,6.719 l 0.24,1.201 c 0,0.799 0,1.6 0,2.399 l 0.24,1.2 c 0,1.32 0.221,2.547 0.479,3.84 v 1.2 c 0.256,1.277 0.465,2.562 0.72,3.84 v 1.44 l 0.24,1.199 c 0,4.375 0,8.751 0,13.126 0,1.103 0,2.206 0,3.309 0,1.032 0.33,2.192 0.477,3.218 0.292,2.041 0.243,4.055 0.243,6.118 0,0.05 0,0.101 0,0.149 l 0.24,0.961 v 0.959 l 0.24,0.961 v 1.199 l 0.24,0.961 c 0,0.64 0,1.279 0,1.92 l 0.239,0.959 c 0,2.036 -0.239,4.051 -0.239,6.078 0,1.168 -0.102,2.277 -0.23,3.439 -0.105,0.946 0.027,1.909 -0.078,2.859 -0.232,2.091 -0.482,4.183 -0.692,6.275 -0.21,2.092 -0.68,4.291 -0.68,6.391 0,2.152 -0.239,4.266 -0.239,6.418 0,2.176 0,4.295 0.239,6.459 0.16,0.48 0.32,0.961 0.48,1.441 l 0.479,0.719 0.24,0.721 0.48,0.721 0.479,0.479 0.48,0.721 0.479,0.48 0.48,0.719 0.24,0.721 0.479,0.48 0.24,0.719 0.479,0.721 0.24,0.721 v 0.719 l 0.24,0.721 0.96,0.961 0.479,0.959 0.721,0.721 0.479,0.959 0.24,1.201 c 0.32,0.639 0.641,1.279 0.96,1.92 l 0.24,1.199 -0.714,-0.233"
       id="path14"
       inkscape:connector-curvature="0"
       style="clip-rule:evenodd;fill:#86b2d8;fill-rule:evenodd" /><path
       d="m 237.979,85.405 h 0.24 l 0.24,-0.24 0.479,-0.24 h 0.24 l 0.479,-0.239 c -0.479,-0.24 -0.96,-0.48 -1.439,-0.721 h -0.48 l -0.24,0.48 c 0.161,0.32 0.321,0.64 0.481,0.96"
       id="path16"
       inkscape:connector-curvature="0"
       style="clip-rule:evenodd;fill:#86b2d8;fill-rule:evenodd" /></g><g
     id="g126"
     transform="translate(-93.383281,-18.593753)"><polyline
       points="270.619,82.285 271.1,82.525 271.579,82.525      271.1,82.285 270.619,82.285    "
       id="polyline20"
       style="clip-rule:evenodd;fill:#010101;fill-rule:evenodd" /><path
       d="m 269.18,82.525 c -0.32,0.16 -0.641,0.319 -0.96,0.479 l -0.24,0.721 0.24,-0.24 0.479,-0.24 0.24,-0.24 0.48,-0.239 0.239,-0.24 0.48,-0.24 h -0.48 l -0.478,0.239"
       id="path22"
       inkscape:connector-curvature="0"
       style="clip-rule:evenodd;fill:#010101;fill-rule:evenodd" /><path
       d="m 254.779,84.925 -0.48,-0.479 -0.719,-0.48 c -0.48,-0.159 -0.961,-0.319 -1.44,-0.479 -0.8,0 -1.601,0 -2.4,0 l -0.72,0.24 h -0.96 c -1.272,0.423 -2.565,0.775 -3.84,1.199 l 0.48,0.48 0.719,0.24 0.48,0.479 c 0.421,0.141 0.804,0.282 1.2,0.48 l 0.239,0.479 v 0.48 l -0.239,0.479 h 0.72 l 0.48,0.24 0.24,0.48 0.479,0.479 0.24,0.48 c 0.32,0.16 0.641,0.319 0.96,0.479 0.399,0 0.8,0 1.2,0 l 0.479,-0.479 c 0,-0.24 0,-0.48 0,-0.721 0.239,0 0.479,0 0.72,0 l 0.24,0.24 c 0.24,0 0.48,0 0.721,0 l 0.239,-0.24 v -0.479 l -0.479,-0.48 -0.48,-0.239 h -0.48 l -0.719,-0.24 h -0.48 c -0.32,-0.16 -0.641,-0.32 -0.96,-0.48 l 0.239,-0.24 c 0.48,0 0.961,0 1.44,0 l 0.24,-0.239 v -0.24 l 0.239,-0.24 h -0.479 l -0.479,-0.24 c -0.32,0 -0.641,0 -0.961,0 l -0.72,0.24 h -0.479 l -0.48,-0.24 H 248.3 l 0.72,-0.72 0.96,-0.479 h 0.96 c 1.064,0.266 2.056,0.693 3.12,0.96 l 0.96,0.479 h 0.96 l -0.479,-0.72 -0.722,-0.479"
       id="path24"
       inkscape:connector-curvature="0"
       style="clip-rule:evenodd;fill:#010101;fill-rule:evenodd" /><path
       d="m 258.859,85.405 h 0.48 c 0,-0.4 0,-0.8 0,-1.2 h -0.48 v 1.2"
       id="path26"
       inkscape:connector-curvature="0"
       style="clip-rule:evenodd;fill:#010101;fill-rule:evenodd" /><path
       d="m 248.3,89.726 h -0.48 l -0.24,0.479 0.48,0.24 0.24,0.479 0.24,0.24 h 0.239 c 0,-0.24 0,-0.479 0,-0.72 l -0.239,-0.48 -0.24,-0.238"
       id="path28"
       inkscape:connector-curvature="0"
       style="clip-rule:evenodd;fill:#010101;fill-rule:evenodd" /><path
       d="m 259.34,94.045 -0.24,0.24 v 0.24 l -0.24,0.24 v 0.239 l -0.24,0.24 v 0.24 h 0.721 l 0.24,-0.24 c 0,-0.48 0,-0.96 0,-1.439 h -0.24 v 0.24"
       id="path30"
       inkscape:connector-curvature="0"
       style="clip-rule:evenodd;fill:#010101;fill-rule:evenodd" /><path
       d="m 247.339,95.965 -0.479,-0.239 c -0.16,0 -0.32,0 -0.479,0 l -0.48,0.239 v 0.24 l -0.24,0.72 c -1.12,0 -2.239,0 -3.359,0 l -0.721,-0.239 c -0.319,-0.32 -0.64,-0.641 -0.959,-0.96 l -0.48,1.439 0.24,0.24 0.24,0.479 0.479,0.24 0.239,0.24 c 0.479,0.24 0.96,0.479 1.44,0.72 0.641,0 1.281,0 1.921,0 l 0.719,-0.24 0.48,-0.479 0.721,-0.24 0.479,-0.479 0.239,-0.48 0.48,-0.24 c -0.16,-0.321 -0.32,-0.641 -0.48,-0.961"
       id="path32"
       inkscape:connector-curvature="0"
       style="clip-rule:evenodd;fill:#010101;fill-rule:evenodd" /><path
       d="m 248.3,102.925 c -1.372,-0.273 -2.724,-0.62 -4.08,-0.96 -0.72,0 -1.44,0 -2.16,0 l -0.48,0.24 c -0.16,0.16 -0.32,0.319 -0.479,0.48 v 0.479 c 1.038,0.26 2.07,0.511 3.12,0.72 h 0.96 l 1.2,-0.239 h 0.959 l 1.201,0.239 h 0.96 l 0.959,-0.72 h -1.199 l -0.961,-0.239"
       id="path34"
       inkscape:connector-curvature="0"
       style="clip-rule:evenodd;fill:#010101;fill-rule:evenodd" /><path
       d="m 246.62,106.045 c -0.479,-0.16 -0.96,-0.319 -1.44,-0.479 h -0.72 l -0.48,-0.24 c -0.479,0 -0.96,0 -1.439,0 l -0.48,0.24 -0.24,0.239 v 0.48 l 0.48,0.24 h 0.72 l 0.479,0.24 h 0.721 l 0.72,0.239 c 0.48,0 0.961,0 1.44,0 0.421,-0.14 0.804,-0.281 1.199,-0.479 -0.32,-0.16 -0.641,-0.32 -0.96,-0.48"
       id="path36"
       inkscape:connector-curvature="0"
       style="clip-rule:evenodd;fill:#010101;fill-rule:evenodd" /><path
       d="m 255.5,112.766 c 0,-0.16 0,-0.32 0,-0.48 h -0.721 c 0,0.72 0,1.439 0,2.16 l 0.24,0.479 0.24,0.24 0.24,-0.479 c 0,-0.24 0,-0.48 0,-0.721 l 0.239,-0.239 -0.239,-0.48 v -0.48"
       id="path38"
       inkscape:connector-curvature="0"
       style="clip-rule:evenodd;fill:#010101;fill-rule:evenodd" /><path
       d="m 237.979,119.485 c -0.24,-0.24 -0.48,-0.48 -0.721,-0.72 -0.319,0 -0.64,0 -0.959,0 v 0.72 c 0.24,0.239 0.479,0.48 0.72,0.72 h 0.239 l 0.48,0.24 c 0.24,0 0.48,0 0.721,0 v -0.72 h -0.24 l -0.24,-0.24"
       id="path40"
       inkscape:connector-curvature="0"
       style="clip-rule:evenodd;fill:#010101;fill-rule:evenodd" /><path
       d="m 251.899,126.686 c -0.159,0 -0.319,0 -0.479,0 l -0.48,0.239 c -0.4,0 -0.801,0 -1.2,0 -0.319,-0.16 -0.64,-0.319 -0.96,-0.479 l -0.239,-0.48 -0.48,-0.479 -0.24,-0.48 -0.48,-0.479 c -0.159,-0.32 -0.319,-0.641 -0.479,-0.96 l -0.239,0.72 0.239,0.48 v 0.72 c 0.24,0.479 0.479,0.96 0.72,1.439 l 0.48,0.48 0.24,0.479 0.479,0.24 c 0.721,0 1.439,0 2.16,0 0.48,-0.24 0.96,-0.479 1.439,-0.72 l -0.239,-0.48 -0.242,-0.24"
       id="path42"
       inkscape:connector-curvature="0"
       style="clip-rule:evenodd;fill:#010101;fill-rule:evenodd" /><path
       d="m 265.579,125.005 c -0.319,0 -0.64,0 -0.96,0 l -0.479,-0.239 h -0.48 c -0.239,0.24 -0.479,0.479 -0.72,0.72 l 0.48,0.24 0.239,0.239 0.48,0.24 0.479,-0.24 c 0.4,0 0.801,0 1.2,0 l 0.48,-0.239 h 0.239 c 0,-0.24 0,-0.48 0,-0.721 -0.318,0 -0.639,0 -0.958,0"
       id="path44"
       inkscape:connector-curvature="0"
       style="clip-rule:evenodd;fill:#010101;fill-rule:evenodd" /><path
       d="m 276.14,140.846 v 0.72 l -0.24,0.48 v 0.721 l -0.24,0.479 v 0.72 l 0.24,0.48 v 0.72 h 0.24 v -0.72 l 0.24,-0.48 v -0.72 c 0.159,-0.32 0.319,-0.641 0.479,-0.96 v -0.721 l 0.24,-0.479 v -0.72 h -0.72 l -0.239,0.48"
       id="path46"
       inkscape:connector-curvature="0"
       style="clip-rule:evenodd;fill:#010101;fill-rule:evenodd" /><path
       d="m 225.739,159.086 c -0.319,0 -0.64,0 -0.96,0 l -0.239,-0.24 -0.24,-0.479 c 0,-0.16 0,-0.32 0,-0.48 l 0.24,-0.24 c 0.319,0 0.64,0 0.959,0 l 0.24,-0.24 c 0,-0.16 0,-0.319 0,-0.479 h -0.24 l -0.24,-0.239 c -0.239,0 -0.479,0 -0.719,0 l -0.24,0.239 h -0.48 l -0.24,-0.239 -0.479,2.159 c 0.24,0.24 0.479,0.48 0.72,0.72 l 0.48,0.24 c 0.72,0 1.44,0 2.16,0 v -0.48 h -0.24 l -0.482,-0.242"
       id="path48"
       inkscape:connector-curvature="0"
       style="clip-rule:evenodd;fill:#010101;fill-rule:evenodd" /><path
       d="m 247.579,165.806 -0.24,-0.24 c -0.319,-0.16 -0.64,-0.32 -0.959,-0.479 l -0.24,-0.24 h -0.48 l -0.479,-0.72 c -0.24,-0.721 -0.479,-1.439 -0.72,-2.16 v -0.72 l -0.24,-0.96 c 0,-0.48 0,-0.961 0,-1.44 H 243.5 c 0,1.12 0,2.24 0,3.36 0.345,1.033 0.616,2.085 0.961,3.119 l 0.479,0.24 0.479,0.48 0.48,0.24 0.24,0.24 h 0.48 l 0.479,0.24 c 0.32,0 0.641,0 0.96,0 v -0.24 l -0.24,-0.48 -0.239,-0.24"
       id="path50"
       inkscape:connector-curvature="0"
       style="clip-rule:evenodd;fill:#010101;fill-rule:evenodd" /><path
       d="m 262.939,161.966 h -0.48 c -0.159,0.16 -0.319,0.32 -0.479,0.48 l -0.24,0.479 c 0,0.319 0,0.64 0,0.96 l 0.24,0.48 v 0.479 h 0.96 c 0,-0.56 0,-1.12 0,-1.68 l 0.48,-0.24 c 0,-0.16 0,-0.319 0,-0.479 l -0.24,-0.48 h -0.241"
       id="path52"
       inkscape:connector-curvature="0"
       style="clip-rule:evenodd;fill:#010101;fill-rule:evenodd" /><path
       d="m 267.26,163.886 -0.48,-0.24 c -0.4,0 -0.801,0 -1.2,0 l -0.479,0.24 -0.24,0.24 0.48,0.48 c 0.641,0 1.279,0 1.92,0 0.159,-0.161 0.319,-0.32 0.479,-0.48 l 0.24,-0.48 -0.48,0.24 h -0.24"
       id="path54"
       inkscape:connector-curvature="0"
       style="clip-rule:evenodd;fill:#010101;fill-rule:evenodd" /><path
       d="m 217.819,182.126 -0.24,-0.24 h -0.24 v 0.48 l 0.24,0.479 h 0.48 l 0.24,-0.239 c -0.159,-0.16 -0.32,-0.32 -0.48,-0.48"
       id="path56"
       inkscape:connector-curvature="0"
       style="clip-rule:evenodd;fill:#010101;fill-rule:evenodd" /><path
       d="m 244.46,192.687 c -0.64,0 -1.28,0 -1.92,0 l -0.48,0.239 -0.24,0.479 h 0.24 l 0.48,0.24 c 0.319,0 0.64,0 0.959,0 l 0.48,-0.24 c 0.24,0 0.48,0 0.721,0 0.319,-0.32 0.64,-0.64 0.959,-0.959 h -0.479 l -0.72,0.241"
       id="path58"
       inkscape:connector-curvature="0"
       style="clip-rule:evenodd;fill:#010101;fill-rule:evenodd" /><path
       d="m 293.899,197.966 h -0.479 l -0.48,-0.24 c -0.32,0 -0.641,0 -0.96,0 l -0.48,0.24 -0.239,0.48 c 0.32,0 0.641,0 0.96,0 l 0.479,0.24 c 0.24,0 0.48,0 0.721,0 l 0.479,-0.24 c 0.319,0 0.64,0 0.96,0 v -0.48 c -0.321,0 -0.641,0 -0.961,0"
       id="path60"
       inkscape:connector-curvature="0"
       style="clip-rule:evenodd;fill:#010101;fill-rule:evenodd" /><path
       d="m 246.859,209.485 c -0.32,-0.16 -0.641,-0.319 -0.96,-0.479 v -0.479 l 0.24,-0.721 h -0.24 l -0.24,-0.24 h -0.24 v 0.24 l -0.239,0.48 c 0,0.479 0,0.96 0,1.439 l 0.239,0.48 0.24,0.24 0.48,0.24 h 0.48 c 0.239,-0.24 0.479,-0.48 0.719,-0.721 -0.158,-0.158 -0.318,-0.318 -0.479,-0.479"
       id="path62"
       inkscape:connector-curvature="0"
       style="clip-rule:evenodd;fill:#010101;fill-rule:evenodd" /><path
       d="m 267.739,227.006 -0.24,0.24 -0.479,0.239 c -0.24,0.48 -0.48,0.96 -0.72,1.44 0.319,-0.16 0.64,-0.319 0.96,-0.479 l 0.239,-0.24 0.48,-0.24 0.24,-0.24 0.24,-0.479 0.239,-0.24 -0.479,-0.239 -0.48,0.238"
       id="path64"
       inkscape:connector-curvature="0"
       style="clip-rule:evenodd;fill:#010101;fill-rule:evenodd" /><path
       d="m 245.659,239.726 c -0.479,-0.16 -0.96,-0.32 -1.439,-0.479 h -0.961 c -0.479,-0.16 -0.96,-0.32 -1.439,-0.479 l -0.72,-0.48 0.479,0.72 0.48,0.479 c 1.206,0.303 2.393,0.658 3.6,0.961 0.479,0 0.96,0 1.44,0 l -0.72,-0.48 -0.72,-0.242"
       id="path66"
       inkscape:connector-curvature="0"
       style="clip-rule:evenodd;fill:#010101;fill-rule:evenodd" /><path
       d="m 249.979,239.966 c -0.399,0 -0.8,0 -1.2,0 l -0.479,0.24 c -0.24,0 -0.48,0 -0.721,0 l 0.48,0.24 0.24,0.24 c 0.319,0 0.64,0 0.96,0 l 0.24,-0.24 h 0.479 l 0.479,-0.24 0.24,-0.24 c -0.238,0 -0.478,0 -0.718,0"
       id="path68"
       inkscape:connector-curvature="0"
       style="clip-rule:evenodd;fill:#010101;fill-rule:evenodd" /><path
       d="m 202.22,242.126 v 0.48 c 0.16,0 0.319,0 0.479,0 v -0.24 l -0.24,-0.24 h -0.239"
       id="path70"
       inkscape:connector-curvature="0"
       style="clip-rule:evenodd;fill:#010101;fill-rule:evenodd" /><path
       d="m 194.299,243.085 h -0.239 l -0.479,-0.24 0.239,2.16 c 0.401,-0.398 0.8,-0.799 1.2,-1.199 l -0.24,-0.48 -0.481,-0.241"
       id="path72"
       inkscape:connector-curvature="0"
       style="clip-rule:evenodd;fill:#010101;fill-rule:evenodd" /><path
       d="m 198.859,244.767 -0.24,-0.24 -0.479,-0.24 c -0.319,0.16 -0.64,0.32 -0.96,0.48 v 0.238 l 0.24,0.48 v 0.48 l 0.24,0.24 v 0.48 l -0.48,0.238 h 0.48 l 0.239,-0.479 c 0.479,-0.24 0.96,-0.48 1.44,-0.721 -0.159,-0.318 -0.319,-0.638 -0.48,-0.956"
       id="path74"
       inkscape:connector-curvature="0"
       style="clip-rule:evenodd;fill:#010101;fill-rule:evenodd" /><path
       d="m 201.5,245.966 v 0.24 c 0.319,0.32 0.641,0.639 0.959,0.959 h 0.24 l 0.24,-0.24 0.48,-0.238 v -0.24 l 0.24,-0.24 v -0.48 l -1.681,-0.24 -0.478,0.479"
       id="path76"
       inkscape:connector-curvature="0"
       style="clip-rule:evenodd;fill:#010101;fill-rule:evenodd" /><polyline
       points="202.22,247.646 202.459,247.405 202.459,247.165      202.22,247.405 202.22,247.646    "
       id="polyline78"
       style="clip-rule:evenodd;fill:#010101;fill-rule:evenodd" /><path
       d="m 294.38,268.767 0.239,0.24 0.48,0.24 c 0.32,0 0.641,0 0.96,0 v -0.48 c -0.319,-0.32 -0.639,-0.641 -0.96,-0.961 -0.16,0 -0.32,0 -0.48,0 -0.16,0.16 -0.32,0.32 -0.479,0.48 l 0.24,0.24 v 0.241"
       id="path80"
       inkscape:connector-curvature="0"
       style="clip-rule:evenodd;fill:#010101;fill-rule:evenodd" /><path
       d="m 296.3,273.806 0.239,0.48 c 0,0.24 0,0.48 0,0.721 l 0.24,0.479 0.24,0.24 h 0.479 c 0,0.721 0,1.439 0,2.16 l -0.239,0.24 h -0.48 l -0.24,0.48 0.24,0.48 0.24,0.238 0.479,0.24 0.24,0.24 0.48,0.24 c 0,0.24 0,0.48 0,0.721 l 0.479,-0.721 0.24,-0.721 v -0.479 c -0.218,-0.654 -0.411,-1.305 -0.72,-1.92 l -0.24,-0.961 v -0.719 h -0.48 l -0.239,-0.24 c 0,-0.24 0,-0.48 0,-0.721 l 0.239,-0.24 v -0.48 l 0.24,-0.24 v -0.238 l -1.439,-0.721 -0.24,0.721 0.24,0.479 v 0.242"
       id="path82"
       inkscape:connector-curvature="0"
       style="clip-rule:evenodd;fill:#010101;fill-rule:evenodd" /><path
       d="m 300.859,273.565 v 0.961 c 0.218,0.652 0.412,1.303 0.72,1.92 l 0.24,0.959 v 0.48 l -0.24,0.721 -0.479,0.719 0.72,0.24 0.24,0.24 0.24,0.48 c 0,0.4 0,0.801 0,1.199 l 0.239,0.48 v 0.48 l 0.48,0.48 c 0,-0.721 0,-1.439 0,-2.16 l 0.24,-0.721 c 0,-0.4 0,-0.799 0,-1.199 l -0.24,-0.721 -0.48,-0.48 v -0.479 c -0.217,-0.654 -0.41,-1.305 -0.72,-1.92 0,-0.48 0,-0.961 0,-1.441 l 0.24,-0.48 0.479,-0.479 c -0.16,-0.16 -0.319,-0.32 -0.479,-0.48 -0.479,0 -0.96,0 -1.44,0 l -0.239,0.24 v 0.48 c 0.159,0.163 0.319,0.323 0.479,0.481"
       id="path84"
       inkscape:connector-curvature="0"
       style="clip-rule:evenodd;fill:#010101;fill-rule:evenodd" /><path
       d="m 235.339,323.966 v 0.24 l -0.239,0.48 -0.24,0.24 c 0,0.32 0,0.641 0,0.959 l 0.24,0.24 h 0.479 l 0.24,-0.48 c 0,-0.799 0,-1.6 0,-2.4 l -0.24,0.24 -0.24,0.481"
       id="path86"
       inkscape:connector-curvature="0"
       style="clip-rule:evenodd;fill:#010101;fill-rule:evenodd" /><path
       d="m 273.26,330.206 c 0.24,-0.24 0.48,-0.48 0.72,-0.721 v -0.479 l 0.24,-0.24 c 0,-0.24 0,-0.48 0,-0.721 l -0.24,0.24 -0.48,0.24 c -0.159,0.16 -0.319,0.32 -0.479,0.48 l -0.24,0.479 -0.24,0.24 v 0.48 l 0.24,0.24 0.479,-0.238"
       id="path88"
       inkscape:connector-curvature="0"
       style="clip-rule:evenodd;fill:#010101;fill-rule:evenodd" /><path
       d="m 266.3,339.565 -0.24,-0.24 h -0.48 l -0.239,0.24 c 0,0.16 0,0.32 0,0.48 l 0.239,0.24 c 0.399,0 0.8,0 1.2,0 l 0.24,-0.48 h -0.48 l -0.24,-0.24"
       id="path90"
       inkscape:connector-curvature="0"
       style="clip-rule:evenodd;fill:#010101;fill-rule:evenodd" /><path
       d="m 235.819,368.126 c 0,0.16 0,0.32 0,0.48 l -0.24,0.24 c 0,0.398 0,0.799 0,1.199 h 0.24 c 0.161,-0.16 0.321,-0.32 0.48,-0.48 0,-0.559 0,-1.119 0,-1.68 h -0.48 v 0.241"
       id="path92"
       inkscape:connector-curvature="0"
       style="clip-rule:evenodd;fill:#010101;fill-rule:evenodd" /><path
       d="m 236.779,379.165 v -0.959 l -0.239,-0.961 v -0.959 l -0.24,-0.961 c 0,-0.719 0,-1.439 0,-2.16 -0.161,-0.158 -0.321,-0.318 -0.48,-0.479 v -0.24 h -0.24 l -0.24,0.959 c 0,1.041 0,2.08 0,3.121 l 0.24,0.959 v 0.961 c 0.16,0.639 0.32,1.279 0.48,1.92 v 0.719 l 0.24,1.201 v 0.721 l -0.24,0.959 v 0.961 c -0.366,0.549 -0.665,1.088 -0.96,1.68 l -0.72,0.719 c -0.8,0 -1.601,0 -2.4,0 -0.479,-0.24 -0.96,-0.479 -1.439,-0.719 l -0.24,-0.48 c -0.16,0.16 -0.32,0.32 -0.48,0.48 0,0.24 0,0.479 0,0.719 l 0.24,0.48 0.48,0.48 c 0.421,0.141 0.804,0.281 1.199,0.48 0.96,0 1.921,0 2.881,0 0.479,-0.48 0.959,-0.961 1.439,-1.441 l 0.48,-0.719 c 0.288,-0.869 0.497,-1.752 0.719,-2.641 0,-0.959 0,-1.92 0,-2.881 -0.159,-0.638 -0.32,-1.278 -0.48,-1.919"
       id="path94"
       inkscape:connector-curvature="0"
       style="clip-rule:evenodd;fill:#010101;fill-rule:evenodd" /><path
       d="m 231.499,374.606 v 0.24 l 0.24,0.238 0.24,-0.479 c 0,-0.24 0,-0.48 0,-0.721 l -0.24,0.48 -0.24,0.242"
       id="path96"
       inkscape:connector-curvature="0"
       style="clip-rule:evenodd;fill:#010101;fill-rule:evenodd" /><path
       d="m 279.499,379.646 0.24,0.48 v -0.48 l 0.24,-0.48 v -0.479 l -0.24,-0.721 v -0.48 l -0.24,-0.479 v -0.48 l -0.239,-0.24 -0.24,0.48 c 0,0.639 0,1.279 0,1.92 0.16,0.318 0.32,0.638 0.479,0.959"
       id="path98"
       inkscape:connector-curvature="0"
       style="clip-rule:evenodd;fill:#010101;fill-rule:evenodd" /><path
       d="m 276.619,379.405 0.24,-0.24 v -0.238 c -0.16,0 -0.32,0 -0.479,0 v 0.719 h 0.239 v -0.241"
       id="path100"
       inkscape:connector-curvature="0"
       style="clip-rule:evenodd;fill:#010101;fill-rule:evenodd" /><path
       d="m 277.819,399.325 0.96,-0.479 c 0.32,-0.48 0.641,-0.961 0.96,-1.441 0.16,-0.641 0.32,-1.279 0.48,-1.92 0,-1.359 0,-2.719 0,-4.08 l -0.24,-0.959 v -0.961 l -0.24,-1.199 c 0,-0.961 0,-1.92 0,-2.881 l -0.24,-0.479 0.24,-0.48 c 0,-0.4 0,-0.801 0,-1.201 l 0.24,-0.719 c -0.16,-0.32 -0.32,-0.641 -0.48,-0.961 l -0.479,-0.24 c -0.18,0.719 -0.335,1.436 -0.48,2.16 0,1.041 0,2.08 0,3.121 0.225,1.123 0.496,2.236 0.721,3.359 v 0.961 l 0.239,0.959 c 0,0.721 0,1.439 0,2.16 -0.179,0.717 -0.334,1.434 -0.479,2.16 -0.32,0.639 -0.641,1.279 -0.96,1.92 -0.16,0.16 -0.32,0.32 -0.48,0.48 l -0.479,0.24 h -0.24 l -0.24,0.238 c 0,0.16 0,0.32 0,0.48 l 0.48,0.48 0.717,-0.718"
       id="path102"
       inkscape:connector-curvature="0"
       style="clip-rule:evenodd;fill:#010101;fill-rule:evenodd" /><path
       d="m 204.859,394.046 -0.48,0.48 -0.239,0.48 h 0.479 c 0.32,-0.16 0.641,-0.32 0.961,-0.48 l 0.239,-0.48 v -0.48 c -0.319,0.16 -0.639,0.32 -0.96,0.48"
       id="path104"
       inkscape:connector-curvature="0"
       style="clip-rule:evenodd;fill:#010101;fill-rule:evenodd" /><polyline
       points="194.06,400.286 194.539,400.046 194.06,400.046      194.06,400.286    "
       id="polyline106"
       style="clip-rule:evenodd;fill:#ffffff;fill-rule:evenodd" /><path
       d="m 262.699,420.206 c -0.16,0.318 -0.32,0.639 -0.479,0.959 h 0.479 l 0.24,-0.238 c 0.16,-0.32 0.32,-0.641 0.48,-0.961 v -0.48 c -0.239,0.24 -0.48,0.48 -0.72,0.72"
       id="path108"
       inkscape:connector-curvature="0"
       style="clip-rule:evenodd;fill:#010101;fill-rule:evenodd" /><path
       d="m 258.379,419.966 c -0.318,0.32 -0.639,0.641 -0.959,0.961 v 0.238 l -0.24,0.24 0.24,0.24 h 0.24 v -0.24 c 0.24,-0.24 0.48,-0.479 0.719,-0.719 l 0.24,-0.721 -0.24,-0.24 v 0.241"
       id="path110"
       inkscape:connector-curvature="0"
       style="clip-rule:evenodd;fill:#010101;fill-rule:evenodd" /><path
       d="m 254.06,426.206 c -0.399,0 -0.8,0 -1.2,0 l -0.48,0.24 v 0.24 l -0.239,0.479 c 0,0.24 0,0.48 0,0.721 h 0.239 l 0.24,-0.24 0.48,-0.24 h 0.24 l 0.24,-0.24 h 0.479 c 0.16,-0.16 0.319,-0.318 0.479,-0.479 v -0.48 c -0.159,-10e-4 -0.319,-10e-4 -0.478,-10e-4"
       id="path112"
       inkscape:connector-curvature="0"
       style="clip-rule:evenodd;fill:#010101;fill-rule:evenodd" /><path
       d="m 257.66,426.446 -0.48,0.24 h -0.24 c 0,0.158 0,0.318 0,0.479 l -0.24,0.24 v 0.24 l -0.24,0.24 0.24,0.24 v 0.24 l 0.24,0.24 c 0.48,-0.48 0.961,-0.961 1.439,-1.441 0,-0.16 0,-0.32 0,-0.479 l -0.239,-0.24 h -0.48"
       id="path114"
       inkscape:connector-curvature="0"
       style="clip-rule:evenodd;fill:#010101;fill-rule:evenodd" /><path
       d="m 262.459,427.165 -0.239,-0.238 -0.24,0.238 h -0.24 v 0.48 l -0.239,0.24 -0.24,0.48 v 0.48 l 0.479,0.479 1.2,-1.439 c 0,-0.16 0,-0.32 0,-0.48 l -0.24,-0.24 h -0.241"
       id="path116"
       inkscape:connector-curvature="0"
       style="clip-rule:evenodd;fill:#010101;fill-rule:evenodd" /><path
       d="m 265.579,428.126 h -0.239 v 0.721 c 0.24,0 0.48,0 0.72,0 0,-0.24 0,-0.48 0,-0.721 -0.161,0 -0.321,0 -0.481,0"
       id="path118"
       inkscape:connector-curvature="0"
       style="clip-rule:evenodd;fill:#010101;fill-rule:evenodd" /><path
       d="m 252.619,429.085 -0.24,0.48 v 0.48 h 0.24 l 0.48,0.24 c 0.16,0 0.32,0 0.48,0 v -1.439 h -0.48 l -0.48,0.239"
       id="path120"
       inkscape:connector-curvature="0"
       style="clip-rule:evenodd;fill:#010101;fill-rule:evenodd" /><path
       d="m 265.1,430.046 -0.24,0.24 v 0.24 h 0.72 l 0.24,-0.24 h 0.24 v -0.24 c -0.32,0 -0.64,0 -0.96,0"
       id="path122"
       inkscape:connector-curvature="0"
       style="clip-rule:evenodd;fill:#010101;fill-rule:evenodd" /><polyline
       points="261.02,430.767 260.779,430.526 260.539,430.526      260.539,431.245 261.26,431.245 261.5,431.007 261.5,430.767 261.26,431.007 261.02,430.767    "
       id="polyline124"
       style="clip-rule:evenodd;fill:#010101;fill-rule:evenodd" /></g><g
     id="g170"
     transform="translate(-93.383281,-18.593753)"><text
       transform="translate(341.457,165.8604)"
       font-size="12"
       id="text128"
       style="font-size:12px;font-family:Helvetica, Verdana, ArialUnicodeMS, san-serif;fill:#ed1c24">Posterior (P)</text>
<text
       transform="translate(93.2075,228.1353)"
       font-size="12"
       id="text130"
       style="font-size:12px;font-family:Helvetica, Verdana, ArialUnicodeMS, san-serif;fill:#ed1c24">Anterior (A)</text>
<text
       transform="translate(107.8062,148.8662)"
       font-size="12"
       id="text132"
       style="font-size:12px;font-family:Helvetica, Verdana, ArialUnicodeMS, san-serif;fill:#00aeef">Right (R)</text>
<text
       transform="translate(346.6982,241.8442)"
       font-size="12"
       id="text134"
       style="font-size:12px;font-family:Helvetica, Verdana, ArialUnicodeMS, san-serif;fill:#00aeef">Left (L)</text>
<text
       transform="translate(224.5996,27.3418)"
       font-size="12"
       id="text136"
       style="font-size:12px;font-family:Helvetica, Verdana, ArialUnicodeMS, san-serif;fill:#0db14b">Head (H)</text>
<text
       transform="translate(226.7651,462.4492)"
       font-size="12"
       id="text138"
       style="font-size:12px;font-family:Helvetica, Verdana, ArialUnicodeMS, san-serif;fill:#0db14b">Foot (F) </text>
<g
       id="g148"><g
         id="g146"><line
           x1="250.353"
           y1="40.792"
           x2="250.353"
           y2="444.12601"
           id="line140"
           style="fill:none;stroke:#0db14b;stroke-width:2" /><path
           d="m 250.353,443.105 3.603,-2.189 0.082,0.122 -2.333,5.875 c -0.45,2.047 -0.9,4.095 -1.351,6.142 -0.45,-2.047 -0.9,-4.095 -1.351,-6.142 l -2.333,-5.875 0.062,-0.122 z"
           id="path142"
           inkscape:connector-curvature="0"
           style="fill:#0db14b" /><path
           d="m 250.353,41.812 -3.603,2.19 -0.082,-0.123 2.333,-5.875 c 0.45,-2.047 0.9,-4.094 1.351,-6.141 0.45,2.047 0.9,4.094 1.351,6.141 l 2.333,5.875 -0.062,0.123 z"
           id="path144"
           inkscape:connector-curvature="0"
           style="fill:#0db14b" /></g></g><g
       id="g158"><g
         id="g156"><line
           x1="166.01801"
           y1="221.147"
           x2="330.216"
           y2="165.058"
           id="line150"
           style="fill:none;stroke:#ed1c24;stroke-width:2" /><path
           d="m 329.251,165.387 -3.238,-2.702 0.09,-0.117 6.314,0.309 c 2.082,-0.235 4.165,-0.471 6.248,-0.707 -1.792,1.088 -3.584,2.176 -5.375,3.264 l -4.806,4.107 -0.136,-0.019 z"
           id="path152"
           inkscape:connector-curvature="0"
           style="fill:#ed1c24" /><path
           d="m 166.983,220.818 3.237,2.701 -0.089,0.117 -6.314,-0.309 c -2.083,0.235 -4.166,0.471 -6.248,0.707 1.792,-1.088 3.583,-2.176 5.375,-3.264 l 4.805,-4.107 0.136,0.019 z"
           id="path154"
           inkscape:connector-curvature="0"
           style="fill:#ed1c24" /></g></g><g
       id="g168"><g
         id="g166"><line
           x1="332.89001"
           y1="231.03"
           x2="168.144"
           y2="153.46001"
           id="line160"
           style="fill:none;stroke:#00aeef;stroke-width:2" /><path
           d="m 169.066,153.895 0.447,4.193 -0.146,0.021 -4.321,-4.614 c -1.66,-1.279 -3.321,-2.559 -4.98,-3.838 2.043,0.464 4.088,0.929 6.132,1.394 l 6.309,0.392 0.085,0.108 z"
           id="path162"
           inkscape:connector-curvature="0"
           style="fill:#00aeef" /><path
           d="m 331.967,230.596 -0.447,-4.193 0.146,-0.021 4.32,4.614 c 1.66,1.279 3.321,2.559 4.98,3.838 -2.043,-0.464 -4.087,-0.929 -6.131,-1.394 l -6.31,-0.392 -0.085,-0.108 z"
           id="path164"
           inkscape:connector-curvature="0"
           style="fill:#00aeef" /></g></g></g></svg>